<mxfile host="app.diagrams.net" modified="2024-04-12T15:25:16.007Z" agent="Mozilla/5.0 (Windows NT 10.0; Win64; x64) AppleWebKit/537.36 (KHTML, like Gecko) Chrome/123.0.0.0 Safari/537.36" etag="MK1rV3drwkcUSm2qIrLG" version="24.0.7" type="github">
  <diagram name="Page-1" id="dqzBqce6mkWaMILGolxg">
    <mxGraphModel dx="3474" dy="1400" grid="1" gridSize="10" guides="1" tooltips="1" connect="1" arrows="1" fold="1" page="1" pageScale="1" pageWidth="827" pageHeight="1169" math="0" shadow="0">
      <root>
        <mxCell id="0" />
        <mxCell id="1" parent="0" />
        <mxCell id="rmpbK_NkBcnPXk61O0qN-1" value="start" style="ellipse;whiteSpace=wrap;html=1;" parent="1" vertex="1">
          <mxGeometry x="370" width="70" height="30" as="geometry" />
        </mxCell>
        <mxCell id="rmpbK_NkBcnPXk61O0qN-2" value="home" style="shape=parallelogram;perimeter=parallelogramPerimeter;whiteSpace=wrap;html=1;fixedSize=1;" parent="1" vertex="1">
          <mxGeometry x="340" y="60" width="130" height="30" as="geometry" />
        </mxCell>
        <mxCell id="rmpbK_NkBcnPXk61O0qN-3" value="navigate between tabs" style="rounded=0;whiteSpace=wrap;html=1;" parent="1" vertex="1">
          <mxGeometry x="340" y="120" width="130" height="30" as="geometry" />
        </mxCell>
        <mxCell id="rmpbK_NkBcnPXk61O0qN-4" value="home" style="shape=parallelogram;perimeter=parallelogramPerimeter;whiteSpace=wrap;html=1;fixedSize=1;" parent="1" vertex="1">
          <mxGeometry x="20" y="210" width="130" height="30" as="geometry" />
        </mxCell>
        <mxCell id="rmpbK_NkBcnPXk61O0qN-209" style="edgeStyle=orthogonalEdgeStyle;rounded=0;orthogonalLoop=1;jettySize=auto;html=1;exitX=0.5;exitY=1;exitDx=0;exitDy=0;entryX=0.5;entryY=0;entryDx=0;entryDy=0;" parent="1" source="rmpbK_NkBcnPXk61O0qN-5" target="rmpbK_NkBcnPXk61O0qN-208" edge="1">
          <mxGeometry relative="1" as="geometry" />
        </mxCell>
        <mxCell id="rmpbK_NkBcnPXk61O0qN-5" value="about" style="shape=parallelogram;perimeter=parallelogramPerimeter;whiteSpace=wrap;html=1;fixedSize=1;" parent="1" vertex="1">
          <mxGeometry x="150" y="210" width="130" height="30" as="geometry" />
        </mxCell>
        <mxCell id="rmpbK_NkBcnPXk61O0qN-6" value="blog" style="shape=parallelogram;perimeter=parallelogramPerimeter;whiteSpace=wrap;html=1;fixedSize=1;" parent="1" vertex="1">
          <mxGeometry x="280" y="210" width="130" height="30" as="geometry" />
        </mxCell>
        <mxCell id="rmpbK_NkBcnPXk61O0qN-7" value="location" style="shape=parallelogram;perimeter=parallelogramPerimeter;whiteSpace=wrap;html=1;fixedSize=1;" parent="1" vertex="1">
          <mxGeometry x="410" y="210" width="130" height="30" as="geometry" />
        </mxCell>
        <mxCell id="rmpbK_NkBcnPXk61O0qN-8" value="pages" style="shape=parallelogram;perimeter=parallelogramPerimeter;whiteSpace=wrap;html=1;fixedSize=1;" parent="1" vertex="1">
          <mxGeometry x="540" y="210" width="130" height="30" as="geometry" />
        </mxCell>
        <mxCell id="rmpbK_NkBcnPXk61O0qN-9" value="contact" style="shape=parallelogram;perimeter=parallelogramPerimeter;whiteSpace=wrap;html=1;fixedSize=1;" parent="1" vertex="1">
          <mxGeometry x="670" y="210" width="130" height="30" as="geometry" />
        </mxCell>
        <mxCell id="rmpbK_NkBcnPXk61O0qN-10" value="dashboard" style="shape=parallelogram;perimeter=parallelogramPerimeter;whiteSpace=wrap;html=1;fixedSize=1;" parent="1" vertex="1">
          <mxGeometry x="800" y="210" width="130" height="30" as="geometry" />
        </mxCell>
        <mxCell id="rmpbK_NkBcnPXk61O0qN-11" value="1" style="rhombus;whiteSpace=wrap;html=1;" parent="1" vertex="1">
          <mxGeometry x="842.5" y="270" width="45" height="40" as="geometry" />
        </mxCell>
        <mxCell id="rmpbK_NkBcnPXk61O0qN-13" value="login" style="shape=parallelogram;perimeter=parallelogramPerimeter;whiteSpace=wrap;html=1;fixedSize=1;" parent="1" vertex="1">
          <mxGeometry x="800" y="340" width="130" height="30" as="geometry" />
        </mxCell>
        <mxCell id="rmpbK_NkBcnPXk61O0qN-14" value="email &amp;amp; password" style="rounded=0;whiteSpace=wrap;html=1;" parent="1" vertex="1">
          <mxGeometry x="800" y="400" width="130" height="30" as="geometry" />
        </mxCell>
        <mxCell id="rmpbK_NkBcnPXk61O0qN-15" value="2" style="rhombus;whiteSpace=wrap;html=1;" parent="1" vertex="1">
          <mxGeometry x="842.5" y="460" width="45" height="40" as="geometry" />
        </mxCell>
        <mxCell id="rmpbK_NkBcnPXk61O0qN-16" value="dashbord" style="shape=parallelogram;perimeter=parallelogramPerimeter;whiteSpace=wrap;html=1;fixedSize=1;" parent="1" vertex="1">
          <mxGeometry x="930" y="465" width="130" height="30" as="geometry" />
        </mxCell>
        <mxCell id="ZvxbgBWPpU1imsRM3yPm-9" style="edgeStyle=orthogonalEdgeStyle;rounded=0;orthogonalLoop=1;jettySize=auto;html=1;exitX=1;exitY=0.5;exitDx=0;exitDy=0;entryX=0;entryY=0.5;entryDx=0;entryDy=0;" edge="1" parent="1" source="rmpbK_NkBcnPXk61O0qN-17" target="ZvxbgBWPpU1imsRM3yPm-1">
          <mxGeometry relative="1" as="geometry" />
        </mxCell>
        <mxCell id="rmpbK_NkBcnPXk61O0qN-17" value="monitoring" style="shape=parallelogram;perimeter=parallelogramPerimeter;whiteSpace=wrap;html=1;fixedSize=1;" parent="1" vertex="1">
          <mxGeometry x="1100" y="225" width="130" height="30" as="geometry" />
        </mxCell>
        <mxCell id="ZvxbgBWPpU1imsRM3yPm-10" style="edgeStyle=orthogonalEdgeStyle;rounded=0;orthogonalLoop=1;jettySize=auto;html=1;exitX=1;exitY=0.5;exitDx=0;exitDy=0;entryX=0;entryY=0.5;entryDx=0;entryDy=0;" edge="1" parent="1" source="rmpbK_NkBcnPXk61O0qN-18" target="ZvxbgBWPpU1imsRM3yPm-2">
          <mxGeometry relative="1" as="geometry" />
        </mxCell>
        <mxCell id="rmpbK_NkBcnPXk61O0qN-18" value="dashbord" style="shape=parallelogram;perimeter=parallelogramPerimeter;whiteSpace=wrap;html=1;fixedSize=1;" parent="1" vertex="1">
          <mxGeometry x="1100" y="265" width="130" height="30" as="geometry" />
        </mxCell>
        <mxCell id="ZvxbgBWPpU1imsRM3yPm-11" style="edgeStyle=orthogonalEdgeStyle;rounded=0;orthogonalLoop=1;jettySize=auto;html=1;exitX=1;exitY=0.5;exitDx=0;exitDy=0;entryX=0;entryY=0.5;entryDx=0;entryDy=0;" edge="1" parent="1" source="rmpbK_NkBcnPXk61O0qN-19" target="ZvxbgBWPpU1imsRM3yPm-3">
          <mxGeometry relative="1" as="geometry" />
        </mxCell>
        <mxCell id="rmpbK_NkBcnPXk61O0qN-19" value="dashbord" style="shape=parallelogram;perimeter=parallelogramPerimeter;whiteSpace=wrap;html=1;fixedSize=1;" parent="1" vertex="1">
          <mxGeometry x="1100" y="305" width="130" height="30" as="geometry" />
        </mxCell>
        <mxCell id="ZvxbgBWPpU1imsRM3yPm-12" style="edgeStyle=orthogonalEdgeStyle;rounded=0;orthogonalLoop=1;jettySize=auto;html=1;exitX=1;exitY=0.5;exitDx=0;exitDy=0;entryX=0;entryY=0.5;entryDx=0;entryDy=0;" edge="1" parent="1" source="rmpbK_NkBcnPXk61O0qN-20" target="ZvxbgBWPpU1imsRM3yPm-4">
          <mxGeometry relative="1" as="geometry" />
        </mxCell>
        <mxCell id="rmpbK_NkBcnPXk61O0qN-20" value="dashbord" style="shape=parallelogram;perimeter=parallelogramPerimeter;whiteSpace=wrap;html=1;fixedSize=1;" parent="1" vertex="1">
          <mxGeometry x="1100" y="345" width="130" height="30" as="geometry" />
        </mxCell>
        <mxCell id="ZvxbgBWPpU1imsRM3yPm-13" style="edgeStyle=orthogonalEdgeStyle;rounded=0;orthogonalLoop=1;jettySize=auto;html=1;exitX=1;exitY=0.5;exitDx=0;exitDy=0;entryX=0;entryY=0.5;entryDx=0;entryDy=0;" edge="1" parent="1" source="rmpbK_NkBcnPXk61O0qN-21" target="ZvxbgBWPpU1imsRM3yPm-5">
          <mxGeometry relative="1" as="geometry" />
        </mxCell>
        <mxCell id="rmpbK_NkBcnPXk61O0qN-21" value="dashbord" style="shape=parallelogram;perimeter=parallelogramPerimeter;whiteSpace=wrap;html=1;fixedSize=1;" parent="1" vertex="1">
          <mxGeometry x="1100" y="385" width="130" height="30" as="geometry" />
        </mxCell>
        <mxCell id="ZvxbgBWPpU1imsRM3yPm-14" style="edgeStyle=orthogonalEdgeStyle;rounded=0;orthogonalLoop=1;jettySize=auto;html=1;exitX=1;exitY=0.5;exitDx=0;exitDy=0;entryX=0;entryY=0.5;entryDx=0;entryDy=0;" edge="1" parent="1" source="rmpbK_NkBcnPXk61O0qN-22" target="ZvxbgBWPpU1imsRM3yPm-6">
          <mxGeometry relative="1" as="geometry" />
        </mxCell>
        <mxCell id="rmpbK_NkBcnPXk61O0qN-22" value="dashbord" style="shape=parallelogram;perimeter=parallelogramPerimeter;whiteSpace=wrap;html=1;fixedSize=1;" parent="1" vertex="1">
          <mxGeometry x="1100" y="424.5" width="130" height="30" as="geometry" />
        </mxCell>
        <mxCell id="ZvxbgBWPpU1imsRM3yPm-15" style="edgeStyle=orthogonalEdgeStyle;rounded=0;orthogonalLoop=1;jettySize=auto;html=1;exitX=1;exitY=0.5;exitDx=0;exitDy=0;entryX=0;entryY=0.5;entryDx=0;entryDy=0;" edge="1" parent="1" source="rmpbK_NkBcnPXk61O0qN-23" target="ZvxbgBWPpU1imsRM3yPm-7">
          <mxGeometry relative="1" as="geometry" />
        </mxCell>
        <mxCell id="rmpbK_NkBcnPXk61O0qN-23" value="dashbord" style="shape=parallelogram;perimeter=parallelogramPerimeter;whiteSpace=wrap;html=1;fixedSize=1;" parent="1" vertex="1">
          <mxGeometry x="1100" y="465" width="130" height="30" as="geometry" />
        </mxCell>
        <mxCell id="rmpbK_NkBcnPXk61O0qN-24" value="" style="endArrow=classic;html=1;rounded=0;entryX=0;entryY=0.5;entryDx=0;entryDy=0;" parent="1" target="rmpbK_NkBcnPXk61O0qN-17" edge="1">
          <mxGeometry width="50" height="50" relative="1" as="geometry">
            <mxPoint x="1080" y="240" as="sourcePoint" />
            <mxPoint x="850" y="390" as="targetPoint" />
          </mxGeometry>
        </mxCell>
        <mxCell id="rmpbK_NkBcnPXk61O0qN-25" value="" style="endArrow=classic;html=1;rounded=0;entryX=0;entryY=0.5;entryDx=0;entryDy=0;" parent="1" target="rmpbK_NkBcnPXk61O0qN-18" edge="1">
          <mxGeometry width="50" height="50" relative="1" as="geometry">
            <mxPoint x="1080" y="280" as="sourcePoint" />
            <mxPoint x="1120" y="250" as="targetPoint" />
          </mxGeometry>
        </mxCell>
        <mxCell id="rmpbK_NkBcnPXk61O0qN-26" value="" style="endArrow=classic;html=1;rounded=0;entryX=0;entryY=0.5;entryDx=0;entryDy=0;" parent="1" target="rmpbK_NkBcnPXk61O0qN-19" edge="1">
          <mxGeometry width="50" height="50" relative="1" as="geometry">
            <mxPoint x="1080" y="320" as="sourcePoint" />
            <mxPoint x="1130" y="260" as="targetPoint" />
          </mxGeometry>
        </mxCell>
        <mxCell id="rmpbK_NkBcnPXk61O0qN-27" value="" style="endArrow=classic;html=1;rounded=0;entryX=0;entryY=0.5;entryDx=0;entryDy=0;" parent="1" target="rmpbK_NkBcnPXk61O0qN-20" edge="1">
          <mxGeometry width="50" height="50" relative="1" as="geometry">
            <mxPoint x="1080" y="360" as="sourcePoint" />
            <mxPoint x="1140" y="270" as="targetPoint" />
          </mxGeometry>
        </mxCell>
        <mxCell id="rmpbK_NkBcnPXk61O0qN-28" value="" style="endArrow=classic;html=1;rounded=0;entryX=0;entryY=0.5;entryDx=0;entryDy=0;" parent="1" target="rmpbK_NkBcnPXk61O0qN-21" edge="1">
          <mxGeometry width="50" height="50" relative="1" as="geometry">
            <mxPoint x="1080" y="400" as="sourcePoint" />
            <mxPoint x="1150" y="280" as="targetPoint" />
          </mxGeometry>
        </mxCell>
        <mxCell id="rmpbK_NkBcnPXk61O0qN-29" value="" style="endArrow=classic;html=1;rounded=0;entryX=0;entryY=0.5;entryDx=0;entryDy=0;" parent="1" target="rmpbK_NkBcnPXk61O0qN-22" edge="1">
          <mxGeometry width="50" height="50" relative="1" as="geometry">
            <mxPoint x="1080" y="440" as="sourcePoint" />
            <mxPoint x="1160" y="290" as="targetPoint" />
          </mxGeometry>
        </mxCell>
        <mxCell id="rmpbK_NkBcnPXk61O0qN-30" value="" style="endArrow=classic;html=1;rounded=0;entryX=0;entryY=0.5;entryDx=0;entryDy=0;exitX=1;exitY=0.5;exitDx=0;exitDy=0;" parent="1" source="rmpbK_NkBcnPXk61O0qN-16" target="rmpbK_NkBcnPXk61O0qN-23" edge="1">
          <mxGeometry width="50" height="50" relative="1" as="geometry">
            <mxPoint x="1140" y="300" as="sourcePoint" />
            <mxPoint x="1170" y="300" as="targetPoint" />
          </mxGeometry>
        </mxCell>
        <mxCell id="rmpbK_NkBcnPXk61O0qN-31" value="" style="endArrow=none;html=1;rounded=0;" parent="1" edge="1">
          <mxGeometry width="50" height="50" relative="1" as="geometry">
            <mxPoint x="1080" y="480" as="sourcePoint" />
            <mxPoint x="1080" y="240" as="targetPoint" />
          </mxGeometry>
        </mxCell>
        <mxCell id="rmpbK_NkBcnPXk61O0qN-32" value="" style="endArrow=classic;html=1;rounded=0;exitX=1;exitY=0.5;exitDx=0;exitDy=0;entryX=0;entryY=0.5;entryDx=0;entryDy=0;" parent="1" source="rmpbK_NkBcnPXk61O0qN-15" target="rmpbK_NkBcnPXk61O0qN-16" edge="1">
          <mxGeometry width="50" height="50" relative="1" as="geometry">
            <mxPoint x="800" y="320" as="sourcePoint" />
            <mxPoint x="850" y="270" as="targetPoint" />
          </mxGeometry>
        </mxCell>
        <mxCell id="rmpbK_NkBcnPXk61O0qN-33" value="" style="endArrow=classic;html=1;rounded=0;exitX=0;exitY=0.5;exitDx=0;exitDy=0;entryX=0;entryY=0.5;entryDx=0;entryDy=0;" parent="1" source="rmpbK_NkBcnPXk61O0qN-15" target="rmpbK_NkBcnPXk61O0qN-13" edge="1">
          <mxGeometry width="50" height="50" relative="1" as="geometry">
            <mxPoint x="800" y="320" as="sourcePoint" />
            <mxPoint x="850" y="270" as="targetPoint" />
            <Array as="points">
              <mxPoint x="770" y="480" />
              <mxPoint x="770" y="355" />
            </Array>
          </mxGeometry>
        </mxCell>
        <mxCell id="rmpbK_NkBcnPXk61O0qN-34" value="" style="endArrow=classic;html=1;rounded=0;exitX=1;exitY=0.5;exitDx=0;exitDy=0;entryX=0.5;entryY=0;entryDx=0;entryDy=0;" parent="1" source="rmpbK_NkBcnPXk61O0qN-11" target="rmpbK_NkBcnPXk61O0qN-16" edge="1">
          <mxGeometry width="50" height="50" relative="1" as="geometry">
            <mxPoint x="800" y="320" as="sourcePoint" />
            <mxPoint x="850" y="270" as="targetPoint" />
            <Array as="points">
              <mxPoint x="995" y="290" />
            </Array>
          </mxGeometry>
        </mxCell>
        <mxCell id="rmpbK_NkBcnPXk61O0qN-35" value="" style="endArrow=classic;html=1;rounded=0;entryX=0.5;entryY=0;entryDx=0;entryDy=0;exitX=0.5;exitY=1;exitDx=0;exitDy=0;" parent="1" source="rmpbK_NkBcnPXk61O0qN-11" target="rmpbK_NkBcnPXk61O0qN-13" edge="1">
          <mxGeometry width="50" height="50" relative="1" as="geometry">
            <mxPoint x="800" y="320" as="sourcePoint" />
            <mxPoint x="850" y="270" as="targetPoint" />
          </mxGeometry>
        </mxCell>
        <mxCell id="rmpbK_NkBcnPXk61O0qN-36" value="" style="endArrow=classic;html=1;rounded=0;exitX=0.5;exitY=1;exitDx=0;exitDy=0;entryX=0.5;entryY=0;entryDx=0;entryDy=0;" parent="1" source="rmpbK_NkBcnPXk61O0qN-13" target="rmpbK_NkBcnPXk61O0qN-14" edge="1">
          <mxGeometry width="50" height="50" relative="1" as="geometry">
            <mxPoint x="800" y="320" as="sourcePoint" />
            <mxPoint x="850" y="270" as="targetPoint" />
          </mxGeometry>
        </mxCell>
        <mxCell id="rmpbK_NkBcnPXk61O0qN-37" value="" style="endArrow=classic;html=1;rounded=0;exitX=0.5;exitY=1;exitDx=0;exitDy=0;entryX=0.5;entryY=0;entryDx=0;entryDy=0;" parent="1" source="rmpbK_NkBcnPXk61O0qN-14" target="rmpbK_NkBcnPXk61O0qN-15" edge="1">
          <mxGeometry width="50" height="50" relative="1" as="geometry">
            <mxPoint x="800" y="320" as="sourcePoint" />
            <mxPoint x="850" y="270" as="targetPoint" />
          </mxGeometry>
        </mxCell>
        <mxCell id="rmpbK_NkBcnPXk61O0qN-38" value="" style="endArrow=classic;html=1;rounded=0;entryX=0.5;entryY=0;entryDx=0;entryDy=0;exitX=0.5;exitY=1;exitDx=0;exitDy=0;" parent="1" source="rmpbK_NkBcnPXk61O0qN-10" target="rmpbK_NkBcnPXk61O0qN-11" edge="1">
          <mxGeometry width="50" height="50" relative="1" as="geometry">
            <mxPoint x="800" y="320" as="sourcePoint" />
            <mxPoint x="850" y="270" as="targetPoint" />
          </mxGeometry>
        </mxCell>
        <mxCell id="rmpbK_NkBcnPXk61O0qN-39" value="" style="endArrow=classic;html=1;rounded=0;entryX=0.5;entryY=0;entryDx=0;entryDy=0;" parent="1" edge="1">
          <mxGeometry width="50" height="50" relative="1" as="geometry">
            <mxPoint x="85" y="180" as="sourcePoint" />
            <mxPoint x="860" y="210" as="targetPoint" />
            <Array as="points">
              <mxPoint x="860" y="180" />
            </Array>
          </mxGeometry>
        </mxCell>
        <mxCell id="rmpbK_NkBcnPXk61O0qN-41" value="" style="endArrow=classic;html=1;rounded=0;entryX=0.5;entryY=0;entryDx=0;entryDy=0;" parent="1" target="rmpbK_NkBcnPXk61O0qN-4" edge="1">
          <mxGeometry width="50" height="50" relative="1" as="geometry">
            <mxPoint x="85" y="180" as="sourcePoint" />
            <mxPoint x="510" y="270" as="targetPoint" />
          </mxGeometry>
        </mxCell>
        <mxCell id="rmpbK_NkBcnPXk61O0qN-42" value="" style="endArrow=classic;html=1;rounded=0;entryX=0.5;entryY=0;entryDx=0;entryDy=0;" parent="1" target="rmpbK_NkBcnPXk61O0qN-5" edge="1">
          <mxGeometry width="50" height="50" relative="1" as="geometry">
            <mxPoint x="215" y="180" as="sourcePoint" />
            <mxPoint x="510" y="270" as="targetPoint" />
          </mxGeometry>
        </mxCell>
        <mxCell id="rmpbK_NkBcnPXk61O0qN-43" value="" style="endArrow=classic;html=1;rounded=0;entryX=0.5;entryY=0;entryDx=0;entryDy=0;" parent="1" target="rmpbK_NkBcnPXk61O0qN-6" edge="1">
          <mxGeometry width="50" height="50" relative="1" as="geometry">
            <mxPoint x="345" y="180" as="sourcePoint" />
            <mxPoint x="510" y="270" as="targetPoint" />
          </mxGeometry>
        </mxCell>
        <mxCell id="rmpbK_NkBcnPXk61O0qN-44" value="" style="endArrow=classic;html=1;rounded=0;entryX=0.5;entryY=0;entryDx=0;entryDy=0;" parent="1" target="rmpbK_NkBcnPXk61O0qN-7" edge="1">
          <mxGeometry width="50" height="50" relative="1" as="geometry">
            <mxPoint x="475" y="180" as="sourcePoint" />
            <mxPoint x="510" y="270" as="targetPoint" />
          </mxGeometry>
        </mxCell>
        <mxCell id="rmpbK_NkBcnPXk61O0qN-45" value="" style="endArrow=classic;html=1;rounded=0;entryX=0.5;entryY=0;entryDx=0;entryDy=0;" parent="1" target="rmpbK_NkBcnPXk61O0qN-8" edge="1">
          <mxGeometry width="50" height="50" relative="1" as="geometry">
            <mxPoint x="605" y="180" as="sourcePoint" />
            <mxPoint x="510" y="270" as="targetPoint" />
          </mxGeometry>
        </mxCell>
        <mxCell id="rmpbK_NkBcnPXk61O0qN-46" value="" style="endArrow=classic;html=1;rounded=0;entryX=0.5;entryY=0;entryDx=0;entryDy=0;" parent="1" target="rmpbK_NkBcnPXk61O0qN-9" edge="1">
          <mxGeometry width="50" height="50" relative="1" as="geometry">
            <mxPoint x="735" y="180" as="sourcePoint" />
            <mxPoint x="510" y="270" as="targetPoint" />
          </mxGeometry>
        </mxCell>
        <mxCell id="rmpbK_NkBcnPXk61O0qN-47" value="" style="endArrow=none;html=1;rounded=0;exitX=0.5;exitY=1;exitDx=0;exitDy=0;" parent="1" source="rmpbK_NkBcnPXk61O0qN-3" edge="1">
          <mxGeometry width="50" height="50" relative="1" as="geometry">
            <mxPoint x="460" y="320" as="sourcePoint" />
            <mxPoint x="405" y="180" as="targetPoint" />
          </mxGeometry>
        </mxCell>
        <mxCell id="rmpbK_NkBcnPXk61O0qN-48" value="" style="endArrow=classic;html=1;rounded=0;exitX=0.5;exitY=1;exitDx=0;exitDy=0;entryX=0.5;entryY=0;entryDx=0;entryDy=0;" parent="1" source="rmpbK_NkBcnPXk61O0qN-2" target="rmpbK_NkBcnPXk61O0qN-3" edge="1">
          <mxGeometry width="50" height="50" relative="1" as="geometry">
            <mxPoint x="460" y="90" as="sourcePoint" />
            <mxPoint x="510" y="40" as="targetPoint" />
          </mxGeometry>
        </mxCell>
        <mxCell id="rmpbK_NkBcnPXk61O0qN-49" value="" style="endArrow=classic;html=1;rounded=0;exitX=0.5;exitY=1;exitDx=0;exitDy=0;" parent="1" source="rmpbK_NkBcnPXk61O0qN-1" target="rmpbK_NkBcnPXk61O0qN-2" edge="1">
          <mxGeometry width="50" height="50" relative="1" as="geometry">
            <mxPoint x="460" y="90" as="sourcePoint" />
            <mxPoint x="510" y="40" as="targetPoint" />
          </mxGeometry>
        </mxCell>
        <mxCell id="rmpbK_NkBcnPXk61O0qN-50" value="yes" style="text;html=1;align=center;verticalAlign=middle;whiteSpace=wrap;rounded=0;" parent="1" vertex="1">
          <mxGeometry x="887.5" y="272.5" width="27.5" height="15" as="geometry" />
        </mxCell>
        <mxCell id="rmpbK_NkBcnPXk61O0qN-52" value="yes" style="text;html=1;align=center;verticalAlign=middle;whiteSpace=wrap;rounded=0;" parent="1" vertex="1">
          <mxGeometry x="887.5" y="465" width="27.5" height="15" as="geometry" />
        </mxCell>
        <mxCell id="rmpbK_NkBcnPXk61O0qN-53" value="no" style="text;html=1;align=center;verticalAlign=middle;whiteSpace=wrap;rounded=0;" parent="1" vertex="1">
          <mxGeometry x="860" y="310" width="27.5" height="15" as="geometry" />
        </mxCell>
        <mxCell id="rmpbK_NkBcnPXk61O0qN-55" value="no" style="text;html=1;align=center;verticalAlign=middle;whiteSpace=wrap;rounded=0;" parent="1" vertex="1">
          <mxGeometry x="815" y="465" width="27.5" height="15" as="geometry" />
        </mxCell>
        <mxCell id="rmpbK_NkBcnPXk61O0qN-56" value="choose location" style="rounded=0;whiteSpace=wrap;html=1;" parent="1" vertex="1">
          <mxGeometry x="410" y="265" width="100" height="30" as="geometry" />
        </mxCell>
        <mxCell id="rmpbK_NkBcnPXk61O0qN-58" value="map" style="shape=parallelogram;perimeter=parallelogramPerimeter;whiteSpace=wrap;html=1;fixedSize=1;" parent="1" vertex="1">
          <mxGeometry x="412.5" y="325" width="95" height="30" as="geometry" />
        </mxCell>
        <mxCell id="rmpbK_NkBcnPXk61O0qN-59" value="forecast" style="shape=parallelogram;perimeter=parallelogramPerimeter;whiteSpace=wrap;html=1;fixedSize=1;" parent="1" vertex="1">
          <mxGeometry x="-70" y="250" width="130" height="30" as="geometry" />
        </mxCell>
        <mxCell id="rmpbK_NkBcnPXk61O0qN-60" value="avg. metrological&amp;nbsp;&lt;div&gt;data&lt;/div&gt;" style="shape=parallelogram;perimeter=parallelogramPerimeter;whiteSpace=wrap;html=1;fixedSize=1;" parent="1" vertex="1">
          <mxGeometry x="-70" y="287.5" width="130" height="30" as="geometry" />
        </mxCell>
        <mxCell id="rmpbK_NkBcnPXk61O0qN-61" value="avg. air quality&lt;div&gt;data&lt;/div&gt;" style="shape=parallelogram;perimeter=parallelogramPerimeter;whiteSpace=wrap;html=1;fixedSize=1;" parent="1" vertex="1">
          <mxGeometry x="-70" y="327" width="130" height="30" as="geometry" />
        </mxCell>
        <mxCell id="rmpbK_NkBcnPXk61O0qN-62" value="weather map" style="shape=parallelogram;perimeter=parallelogramPerimeter;whiteSpace=wrap;html=1;fixedSize=1;" parent="1" vertex="1">
          <mxGeometry x="-70" y="370" width="130" height="30" as="geometry" />
        </mxCell>
        <mxCell id="rmpbK_NkBcnPXk61O0qN-63" value="" style="endArrow=classic;html=1;rounded=0;entryX=1;entryY=0.5;entryDx=0;entryDy=0;exitX=0.5;exitY=1;exitDx=0;exitDy=0;" parent="1" source="rmpbK_NkBcnPXk61O0qN-4" target="rmpbK_NkBcnPXk61O0qN-62" edge="1">
          <mxGeometry width="50" height="50" relative="1" as="geometry">
            <mxPoint x="50" y="330" as="sourcePoint" />
            <mxPoint x="100" y="280" as="targetPoint" />
            <Array as="points">
              <mxPoint x="85" y="385" />
            </Array>
          </mxGeometry>
        </mxCell>
        <mxCell id="rmpbK_NkBcnPXk61O0qN-65" value="" style="endArrow=classic;html=1;rounded=0;entryX=1;entryY=0.5;entryDx=0;entryDy=0;" parent="1" target="rmpbK_NkBcnPXk61O0qN-61" edge="1">
          <mxGeometry width="50" height="50" relative="1" as="geometry">
            <mxPoint x="85" y="342" as="sourcePoint" />
            <mxPoint x="115" y="310" as="targetPoint" />
          </mxGeometry>
        </mxCell>
        <mxCell id="rmpbK_NkBcnPXk61O0qN-66" value="" style="endArrow=classic;html=1;rounded=0;entryX=1;entryY=0.5;entryDx=0;entryDy=0;" parent="1" edge="1">
          <mxGeometry width="50" height="50" relative="1" as="geometry">
            <mxPoint x="85" y="302.34000000000003" as="sourcePoint" />
            <mxPoint x="50" y="302.34000000000003" as="targetPoint" />
          </mxGeometry>
        </mxCell>
        <mxCell id="rmpbK_NkBcnPXk61O0qN-67" value="" style="endArrow=classic;html=1;rounded=0;entryX=1;entryY=0.5;entryDx=0;entryDy=0;" parent="1" edge="1">
          <mxGeometry width="50" height="50" relative="1" as="geometry">
            <mxPoint x="85" y="264.68" as="sourcePoint" />
            <mxPoint x="50" y="264.68" as="targetPoint" />
          </mxGeometry>
        </mxCell>
        <mxCell id="rmpbK_NkBcnPXk61O0qN-68" value="like forecast" style="rounded=0;whiteSpace=wrap;html=1;" parent="1" vertex="1">
          <mxGeometry x="-200" y="250" width="100" height="30" as="geometry" />
        </mxCell>
        <mxCell id="rmpbK_NkBcnPXk61O0qN-69" value="1" style="rhombus;whiteSpace=wrap;html=1;" parent="1" vertex="1">
          <mxGeometry x="-280" y="245" width="45" height="40" as="geometry" />
        </mxCell>
        <mxCell id="rmpbK_NkBcnPXk61O0qN-70" value="sign in with google" style="shape=parallelogram;perimeter=parallelogramPerimeter;whiteSpace=wrap;html=1;fixedSize=1;" parent="1" vertex="1">
          <mxGeometry x="-322.5" y="310" width="130" height="30" as="geometry" />
        </mxCell>
        <mxCell id="rmpbK_NkBcnPXk61O0qN-71" value="3" style="rhombus;whiteSpace=wrap;html=1;" parent="1" vertex="1">
          <mxGeometry x="-280" y="365" width="45" height="40" as="geometry" />
        </mxCell>
        <mxCell id="rmpbK_NkBcnPXk61O0qN-72" value="reload" style="rounded=0;whiteSpace=wrap;html=1;" parent="1" vertex="1">
          <mxGeometry x="-190" y="370" width="70" height="30" as="geometry" />
        </mxCell>
        <mxCell id="rmpbK_NkBcnPXk61O0qN-73" value="liked" style="shape=parallelogram;perimeter=parallelogramPerimeter;whiteSpace=wrap;html=1;fixedSize=1;" parent="1" vertex="1">
          <mxGeometry x="-322.5" y="435" width="130" height="30" as="geometry" />
        </mxCell>
        <mxCell id="rmpbK_NkBcnPXk61O0qN-74" value="" style="endArrow=classic;html=1;rounded=0;entryX=1;entryY=0.5;entryDx=0;entryDy=0;exitX=0;exitY=0.5;exitDx=0;exitDy=0;" parent="1" source="rmpbK_NkBcnPXk61O0qN-59" target="rmpbK_NkBcnPXk61O0qN-68" edge="1">
          <mxGeometry width="50" height="50" relative="1" as="geometry">
            <mxPoint x="-30" y="420" as="sourcePoint" />
            <mxPoint x="20" y="370" as="targetPoint" />
          </mxGeometry>
        </mxCell>
        <mxCell id="rmpbK_NkBcnPXk61O0qN-75" value="" style="endArrow=classic;html=1;rounded=0;exitX=0;exitY=0.5;exitDx=0;exitDy=0;entryX=1;entryY=0.5;entryDx=0;entryDy=0;" parent="1" source="rmpbK_NkBcnPXk61O0qN-68" target="rmpbK_NkBcnPXk61O0qN-69" edge="1">
          <mxGeometry width="50" height="50" relative="1" as="geometry">
            <mxPoint x="-120" y="350" as="sourcePoint" />
            <mxPoint x="-70" y="300" as="targetPoint" />
          </mxGeometry>
        </mxCell>
        <mxCell id="rmpbK_NkBcnPXk61O0qN-76" value="" style="endArrow=classic;html=1;rounded=0;exitX=0.5;exitY=1;exitDx=0;exitDy=0;entryX=0.5;entryY=0;entryDx=0;entryDy=0;" parent="1" source="rmpbK_NkBcnPXk61O0qN-69" target="rmpbK_NkBcnPXk61O0qN-70" edge="1">
          <mxGeometry width="50" height="50" relative="1" as="geometry">
            <mxPoint x="-120" y="350" as="sourcePoint" />
            <mxPoint x="-70" y="300" as="targetPoint" />
          </mxGeometry>
        </mxCell>
        <mxCell id="rmpbK_NkBcnPXk61O0qN-77" value="" style="endArrow=classic;html=1;rounded=0;exitX=0.5;exitY=1;exitDx=0;exitDy=0;entryX=0.5;entryY=0;entryDx=0;entryDy=0;" parent="1" source="rmpbK_NkBcnPXk61O0qN-70" target="rmpbK_NkBcnPXk61O0qN-71" edge="1">
          <mxGeometry width="50" height="50" relative="1" as="geometry">
            <mxPoint x="-120" y="350" as="sourcePoint" />
            <mxPoint x="-70" y="300" as="targetPoint" />
          </mxGeometry>
        </mxCell>
        <mxCell id="rmpbK_NkBcnPXk61O0qN-78" value="" style="endArrow=classic;html=1;rounded=0;exitX=0.5;exitY=1;exitDx=0;exitDy=0;" parent="1" source="rmpbK_NkBcnPXk61O0qN-71" target="rmpbK_NkBcnPXk61O0qN-73" edge="1">
          <mxGeometry width="50" height="50" relative="1" as="geometry">
            <mxPoint x="-120" y="350" as="sourcePoint" />
            <mxPoint x="-70" y="300" as="targetPoint" />
          </mxGeometry>
        </mxCell>
        <mxCell id="rmpbK_NkBcnPXk61O0qN-79" value="" style="endArrow=classic;html=1;rounded=0;exitX=1;exitY=0.5;exitDx=0;exitDy=0;entryX=0;entryY=0.5;entryDx=0;entryDy=0;" parent="1" source="rmpbK_NkBcnPXk61O0qN-71" target="rmpbK_NkBcnPXk61O0qN-72" edge="1">
          <mxGeometry width="50" height="50" relative="1" as="geometry">
            <mxPoint x="-120" y="350" as="sourcePoint" />
            <mxPoint x="-70" y="300" as="targetPoint" />
          </mxGeometry>
        </mxCell>
        <mxCell id="rmpbK_NkBcnPXk61O0qN-80" value="" style="endArrow=classic;html=1;rounded=0;exitX=0.5;exitY=0;exitDx=0;exitDy=0;entryX=1;entryY=0.5;entryDx=0;entryDy=0;" parent="1" source="rmpbK_NkBcnPXk61O0qN-72" target="rmpbK_NkBcnPXk61O0qN-70" edge="1">
          <mxGeometry width="50" height="50" relative="1" as="geometry">
            <mxPoint x="-120" y="350" as="sourcePoint" />
            <mxPoint x="-70" y="300" as="targetPoint" />
            <Array as="points">
              <mxPoint x="-155" y="325" />
            </Array>
          </mxGeometry>
        </mxCell>
        <mxCell id="rmpbK_NkBcnPXk61O0qN-81" value="" style="endArrow=classic;html=1;rounded=0;exitX=0;exitY=0.5;exitDx=0;exitDy=0;entryX=0;entryY=0.5;entryDx=0;entryDy=0;" parent="1" source="rmpbK_NkBcnPXk61O0qN-69" target="rmpbK_NkBcnPXk61O0qN-73" edge="1">
          <mxGeometry width="50" height="50" relative="1" as="geometry">
            <mxPoint x="-120" y="350" as="sourcePoint" />
            <mxPoint x="-70" y="300" as="targetPoint" />
            <Array as="points">
              <mxPoint x="-340" y="265" />
              <mxPoint x="-340" y="450" />
            </Array>
          </mxGeometry>
        </mxCell>
        <mxCell id="rmpbK_NkBcnPXk61O0qN-82" value="" style="endArrow=classic;html=1;rounded=0;exitX=0.384;exitY=1.063;exitDx=0;exitDy=0;exitPerimeter=0;" parent="1" source="rmpbK_NkBcnPXk61O0qN-7" target="rmpbK_NkBcnPXk61O0qN-56" edge="1">
          <mxGeometry width="50" height="50" relative="1" as="geometry">
            <mxPoint x="440" y="360" as="sourcePoint" />
            <mxPoint x="490" y="310" as="targetPoint" />
          </mxGeometry>
        </mxCell>
        <mxCell id="rmpbK_NkBcnPXk61O0qN-83" value="" style="endArrow=classic;html=1;rounded=0;exitX=0.5;exitY=1;exitDx=0;exitDy=0;entryX=0.5;entryY=0;entryDx=0;entryDy=0;" parent="1" source="rmpbK_NkBcnPXk61O0qN-56" target="rmpbK_NkBcnPXk61O0qN-58" edge="1">
          <mxGeometry width="50" height="50" relative="1" as="geometry">
            <mxPoint x="440" y="360" as="sourcePoint" />
            <mxPoint x="490" y="310" as="targetPoint" />
          </mxGeometry>
        </mxCell>
        <mxCell id="rmpbK_NkBcnPXk61O0qN-84" value="yes" style="text;html=1;align=center;verticalAlign=middle;whiteSpace=wrap;rounded=0;" parent="1" vertex="1">
          <mxGeometry x="-307.5" y="250" width="27.5" height="15" as="geometry" />
        </mxCell>
        <mxCell id="rmpbK_NkBcnPXk61O0qN-85" value="yes" style="text;html=1;align=center;verticalAlign=middle;whiteSpace=wrap;rounded=0;" parent="1" vertex="1">
          <mxGeometry x="-260" y="405" width="27.5" height="15" as="geometry" />
        </mxCell>
        <mxCell id="rmpbK_NkBcnPXk61O0qN-86" value="no" style="text;html=1;align=center;verticalAlign=middle;whiteSpace=wrap;rounded=0;" parent="1" vertex="1">
          <mxGeometry x="-260" y="285" width="27.5" height="15" as="geometry" />
        </mxCell>
        <mxCell id="rmpbK_NkBcnPXk61O0qN-87" value="no" style="text;html=1;align=center;verticalAlign=middle;whiteSpace=wrap;rounded=0;" parent="1" vertex="1">
          <mxGeometry x="-240" y="370" width="27.5" height="15" as="geometry" />
        </mxCell>
        <mxCell id="rmpbK_NkBcnPXk61O0qN-88" value="references" style="shape=parallelogram;perimeter=parallelogramPerimeter;whiteSpace=wrap;html=1;fixedSize=1;" parent="1" vertex="1">
          <mxGeometry x="440" y="400" width="130" height="30" as="geometry" />
        </mxCell>
        <mxCell id="rmpbK_NkBcnPXk61O0qN-89" value="feedback" style="shape=parallelogram;perimeter=parallelogramPerimeter;whiteSpace=wrap;html=1;fixedSize=1;" parent="1" vertex="1">
          <mxGeometry x="440" y="440" width="130" height="30" as="geometry" />
        </mxCell>
        <mxCell id="rmpbK_NkBcnPXk61O0qN-90" value="FAQ" style="shape=parallelogram;perimeter=parallelogramPerimeter;whiteSpace=wrap;html=1;fixedSize=1;" parent="1" vertex="1">
          <mxGeometry x="440" y="480" width="130" height="30" as="geometry" />
        </mxCell>
        <mxCell id="rmpbK_NkBcnPXk61O0qN-91" value="privacy policy" style="shape=parallelogram;perimeter=parallelogramPerimeter;whiteSpace=wrap;html=1;fixedSize=1;" parent="1" vertex="1">
          <mxGeometry x="440" y="520" width="130" height="30" as="geometry" />
        </mxCell>
        <mxCell id="rmpbK_NkBcnPXk61O0qN-92" value="terms &amp;amp; conditions" style="shape=parallelogram;perimeter=parallelogramPerimeter;whiteSpace=wrap;html=1;fixedSize=1;" parent="1" vertex="1">
          <mxGeometry x="440" y="560" width="130" height="30" as="geometry" />
        </mxCell>
        <mxCell id="rmpbK_NkBcnPXk61O0qN-93" value="" style="endArrow=classic;html=1;rounded=0;exitX=0.75;exitY=1;exitDx=0;exitDy=0;entryX=1;entryY=0.5;entryDx=0;entryDy=0;" parent="1" source="rmpbK_NkBcnPXk61O0qN-8" target="rmpbK_NkBcnPXk61O0qN-92" edge="1">
          <mxGeometry width="50" height="50" relative="1" as="geometry">
            <mxPoint x="350" y="460" as="sourcePoint" />
            <mxPoint x="400" y="410" as="targetPoint" />
            <Array as="points">
              <mxPoint x="638" y="575" />
            </Array>
          </mxGeometry>
        </mxCell>
        <mxCell id="rmpbK_NkBcnPXk61O0qN-94" value="" style="endArrow=classic;html=1;rounded=0;entryX=1;entryY=0.5;entryDx=0;entryDy=0;" parent="1" target="rmpbK_NkBcnPXk61O0qN-91" edge="1">
          <mxGeometry width="50" height="50" relative="1" as="geometry">
            <mxPoint x="640" y="535" as="sourcePoint" />
            <mxPoint x="620" y="460" as="targetPoint" />
          </mxGeometry>
        </mxCell>
        <mxCell id="rmpbK_NkBcnPXk61O0qN-95" value="" style="endArrow=classic;html=1;rounded=0;entryX=1;entryY=0.5;entryDx=0;entryDy=0;" parent="1" target="rmpbK_NkBcnPXk61O0qN-90" edge="1">
          <mxGeometry width="50" height="50" relative="1" as="geometry">
            <mxPoint x="640" y="495" as="sourcePoint" />
            <mxPoint x="620" y="460" as="targetPoint" />
          </mxGeometry>
        </mxCell>
        <mxCell id="rmpbK_NkBcnPXk61O0qN-96" value="" style="endArrow=classic;html=1;rounded=0;entryX=1;entryY=0.5;entryDx=0;entryDy=0;" parent="1" target="rmpbK_NkBcnPXk61O0qN-89" edge="1">
          <mxGeometry width="50" height="50" relative="1" as="geometry">
            <mxPoint x="640" y="455" as="sourcePoint" />
            <mxPoint x="620" y="460" as="targetPoint" />
          </mxGeometry>
        </mxCell>
        <mxCell id="rmpbK_NkBcnPXk61O0qN-97" value="" style="endArrow=classic;html=1;rounded=0;entryX=1;entryY=0.5;entryDx=0;entryDy=0;" parent="1" target="rmpbK_NkBcnPXk61O0qN-88" edge="1">
          <mxGeometry width="50" height="50" relative="1" as="geometry">
            <mxPoint x="640" y="415" as="sourcePoint" />
            <mxPoint x="620" y="460" as="targetPoint" />
          </mxGeometry>
        </mxCell>
        <mxCell id="rmpbK_NkBcnPXk61O0qN-98" value="add feedback" style="rounded=0;whiteSpace=wrap;html=1;" parent="1" vertex="1">
          <mxGeometry x="312.5" y="440" width="100" height="30" as="geometry" />
        </mxCell>
        <mxCell id="rmpbK_NkBcnPXk61O0qN-115" value="1" style="rhombus;whiteSpace=wrap;html=1;" parent="1" vertex="1">
          <mxGeometry x="230" y="435" width="45" height="40" as="geometry" />
        </mxCell>
        <mxCell id="rmpbK_NkBcnPXk61O0qN-116" value="sign in with google" style="shape=parallelogram;perimeter=parallelogramPerimeter;whiteSpace=wrap;html=1;fixedSize=1;" parent="1" vertex="1">
          <mxGeometry x="187.5" y="500" width="130" height="30" as="geometry" />
        </mxCell>
        <mxCell id="rmpbK_NkBcnPXk61O0qN-117" value="3" style="rhombus;whiteSpace=wrap;html=1;" parent="1" vertex="1">
          <mxGeometry x="230" y="555" width="45" height="40" as="geometry" />
        </mxCell>
        <mxCell id="rmpbK_NkBcnPXk61O0qN-118" value="reload" style="rounded=0;whiteSpace=wrap;html=1;" parent="1" vertex="1">
          <mxGeometry x="320" y="560" width="70" height="30" as="geometry" />
        </mxCell>
        <mxCell id="rmpbK_NkBcnPXk61O0qN-119" value="feedback added" style="shape=parallelogram;perimeter=parallelogramPerimeter;whiteSpace=wrap;html=1;fixedSize=1;" parent="1" vertex="1">
          <mxGeometry x="187.5" y="625" width="130" height="30" as="geometry" />
        </mxCell>
        <mxCell id="rmpbK_NkBcnPXk61O0qN-120" value="" style="endArrow=classic;html=1;rounded=0;exitX=0;exitY=0.5;exitDx=0;exitDy=0;entryX=1;entryY=0.5;entryDx=0;entryDy=0;" parent="1" source="rmpbK_NkBcnPXk61O0qN-98" target="rmpbK_NkBcnPXk61O0qN-115" edge="1">
          <mxGeometry width="50" height="50" relative="1" as="geometry">
            <mxPoint x="310" y="455" as="sourcePoint" />
            <mxPoint x="440" y="490" as="targetPoint" />
          </mxGeometry>
        </mxCell>
        <mxCell id="rmpbK_NkBcnPXk61O0qN-121" value="" style="endArrow=classic;html=1;rounded=0;exitX=0.5;exitY=1;exitDx=0;exitDy=0;entryX=0.5;entryY=0;entryDx=0;entryDy=0;" parent="1" source="rmpbK_NkBcnPXk61O0qN-115" target="rmpbK_NkBcnPXk61O0qN-116" edge="1">
          <mxGeometry width="50" height="50" relative="1" as="geometry">
            <mxPoint x="390" y="540" as="sourcePoint" />
            <mxPoint x="440" y="490" as="targetPoint" />
          </mxGeometry>
        </mxCell>
        <mxCell id="rmpbK_NkBcnPXk61O0qN-122" value="" style="endArrow=classic;html=1;rounded=0;exitX=0.5;exitY=1;exitDx=0;exitDy=0;entryX=0.5;entryY=0;entryDx=0;entryDy=0;" parent="1" source="rmpbK_NkBcnPXk61O0qN-116" target="rmpbK_NkBcnPXk61O0qN-117" edge="1">
          <mxGeometry width="50" height="50" relative="1" as="geometry">
            <mxPoint x="390" y="540" as="sourcePoint" />
            <mxPoint x="440" y="490" as="targetPoint" />
          </mxGeometry>
        </mxCell>
        <mxCell id="rmpbK_NkBcnPXk61O0qN-123" value="" style="endArrow=classic;html=1;rounded=0;exitX=0.5;exitY=1;exitDx=0;exitDy=0;" parent="1" source="rmpbK_NkBcnPXk61O0qN-117" target="rmpbK_NkBcnPXk61O0qN-119" edge="1">
          <mxGeometry width="50" height="50" relative="1" as="geometry">
            <mxPoint x="390" y="540" as="sourcePoint" />
            <mxPoint x="440" y="490" as="targetPoint" />
          </mxGeometry>
        </mxCell>
        <mxCell id="rmpbK_NkBcnPXk61O0qN-124" value="" style="endArrow=classic;html=1;rounded=0;exitX=1;exitY=0.5;exitDx=0;exitDy=0;entryX=0;entryY=0.5;entryDx=0;entryDy=0;" parent="1" source="rmpbK_NkBcnPXk61O0qN-117" target="rmpbK_NkBcnPXk61O0qN-118" edge="1">
          <mxGeometry width="50" height="50" relative="1" as="geometry">
            <mxPoint x="390" y="540" as="sourcePoint" />
            <mxPoint x="440" y="490" as="targetPoint" />
          </mxGeometry>
        </mxCell>
        <mxCell id="rmpbK_NkBcnPXk61O0qN-125" value="" style="endArrow=classic;html=1;rounded=0;exitX=0.5;exitY=0;exitDx=0;exitDy=0;entryX=1;entryY=0.5;entryDx=0;entryDy=0;" parent="1" source="rmpbK_NkBcnPXk61O0qN-118" target="rmpbK_NkBcnPXk61O0qN-116" edge="1">
          <mxGeometry width="50" height="50" relative="1" as="geometry">
            <mxPoint x="390" y="540" as="sourcePoint" />
            <mxPoint x="440" y="490" as="targetPoint" />
            <Array as="points">
              <mxPoint x="355" y="515" />
            </Array>
          </mxGeometry>
        </mxCell>
        <mxCell id="rmpbK_NkBcnPXk61O0qN-126" value="" style="endArrow=classic;html=1;rounded=0;exitX=0;exitY=0.5;exitDx=0;exitDy=0;entryX=0;entryY=0.5;entryDx=0;entryDy=0;" parent="1" source="rmpbK_NkBcnPXk61O0qN-115" target="rmpbK_NkBcnPXk61O0qN-119" edge="1">
          <mxGeometry width="50" height="50" relative="1" as="geometry">
            <mxPoint x="390" y="540" as="sourcePoint" />
            <mxPoint x="440" y="490" as="targetPoint" />
            <Array as="points">
              <mxPoint x="170" y="455" />
              <mxPoint x="170" y="640" />
            </Array>
          </mxGeometry>
        </mxCell>
        <mxCell id="rmpbK_NkBcnPXk61O0qN-127" value="yes" style="text;html=1;align=center;verticalAlign=middle;whiteSpace=wrap;rounded=0;" parent="1" vertex="1">
          <mxGeometry x="202.5" y="440" width="27.5" height="15" as="geometry" />
        </mxCell>
        <mxCell id="rmpbK_NkBcnPXk61O0qN-128" value="yes" style="text;html=1;align=center;verticalAlign=middle;whiteSpace=wrap;rounded=0;" parent="1" vertex="1">
          <mxGeometry x="250" y="595" width="27.5" height="15" as="geometry" />
        </mxCell>
        <mxCell id="rmpbK_NkBcnPXk61O0qN-129" value="no" style="text;html=1;align=center;verticalAlign=middle;whiteSpace=wrap;rounded=0;" parent="1" vertex="1">
          <mxGeometry x="250" y="475" width="27.5" height="15" as="geometry" />
        </mxCell>
        <mxCell id="rmpbK_NkBcnPXk61O0qN-130" value="no" style="text;html=1;align=center;verticalAlign=middle;whiteSpace=wrap;rounded=0;" parent="1" vertex="1">
          <mxGeometry x="270" y="560" width="27.5" height="15" as="geometry" />
        </mxCell>
        <mxCell id="rmpbK_NkBcnPXk61O0qN-131" value="" style="endArrow=classic;html=1;rounded=0;entryX=1;entryY=0.5;entryDx=0;entryDy=0;exitX=0;exitY=0.5;exitDx=0;exitDy=0;" parent="1" source="rmpbK_NkBcnPXk61O0qN-89" target="rmpbK_NkBcnPXk61O0qN-98" edge="1">
          <mxGeometry width="50" height="50" relative="1" as="geometry">
            <mxPoint x="340" y="530" as="sourcePoint" />
            <mxPoint x="390" y="480" as="targetPoint" />
          </mxGeometry>
        </mxCell>
        <mxCell id="rmpbK_NkBcnPXk61O0qN-132" value="enter data" style="rounded=0;whiteSpace=wrap;html=1;" parent="1" vertex="1">
          <mxGeometry x="685" y="520" width="100" height="30" as="geometry" />
        </mxCell>
        <mxCell id="rmpbK_NkBcnPXk61O0qN-133" value="" style="endArrow=classic;html=1;rounded=0;exitX=0.5;exitY=1;exitDx=0;exitDy=0;entryX=0.5;entryY=0;entryDx=0;entryDy=0;" parent="1" source="rmpbK_NkBcnPXk61O0qN-9" target="rmpbK_NkBcnPXk61O0qN-132" edge="1">
          <mxGeometry width="50" height="50" relative="1" as="geometry">
            <mxPoint x="680" y="400" as="sourcePoint" />
            <mxPoint x="730" y="350" as="targetPoint" />
          </mxGeometry>
        </mxCell>
        <mxCell id="rmpbK_NkBcnPXk61O0qN-137" style="edgeStyle=orthogonalEdgeStyle;rounded=0;orthogonalLoop=1;jettySize=auto;html=1;exitX=0.5;exitY=1;exitDx=0;exitDy=0;entryX=0.5;entryY=0;entryDx=0;entryDy=0;" parent="1" source="rmpbK_NkBcnPXk61O0qN-134" target="rmpbK_NkBcnPXk61O0qN-136" edge="1">
          <mxGeometry relative="1" as="geometry" />
        </mxCell>
        <mxCell id="rmpbK_NkBcnPXk61O0qN-145" style="edgeStyle=orthogonalEdgeStyle;rounded=0;orthogonalLoop=1;jettySize=auto;html=1;exitX=1;exitY=0.5;exitDx=0;exitDy=0;entryX=0;entryY=0.5;entryDx=0;entryDy=0;" parent="1" source="rmpbK_NkBcnPXk61O0qN-134" target="rmpbK_NkBcnPXk61O0qN-139" edge="1">
          <mxGeometry relative="1" as="geometry" />
        </mxCell>
        <mxCell id="rmpbK_NkBcnPXk61O0qN-134" value="4" style="rhombus;whiteSpace=wrap;html=1;" parent="1" vertex="1">
          <mxGeometry x="712.5" y="582.5" width="45" height="40" as="geometry" />
        </mxCell>
        <mxCell id="rmpbK_NkBcnPXk61O0qN-135" value="" style="endArrow=classic;html=1;rounded=0;exitX=0.5;exitY=1;exitDx=0;exitDy=0;entryX=0.5;entryY=0;entryDx=0;entryDy=0;" parent="1" source="rmpbK_NkBcnPXk61O0qN-132" target="rmpbK_NkBcnPXk61O0qN-134" edge="1">
          <mxGeometry width="50" height="50" relative="1" as="geometry">
            <mxPoint x="680" y="490" as="sourcePoint" />
            <mxPoint x="730" y="440" as="targetPoint" />
          </mxGeometry>
        </mxCell>
        <mxCell id="rmpbK_NkBcnPXk61O0qN-138" style="edgeStyle=orthogonalEdgeStyle;rounded=0;orthogonalLoop=1;jettySize=auto;html=1;exitX=0;exitY=0.5;exitDx=0;exitDy=0;entryX=0;entryY=0.5;entryDx=0;entryDy=0;" parent="1" source="rmpbK_NkBcnPXk61O0qN-136" target="rmpbK_NkBcnPXk61O0qN-132" edge="1">
          <mxGeometry relative="1" as="geometry">
            <Array as="points">
              <mxPoint x="660" y="665" />
              <mxPoint x="660" y="535" />
            </Array>
          </mxGeometry>
        </mxCell>
        <mxCell id="rmpbK_NkBcnPXk61O0qN-136" value="try again" style="shape=parallelogram;perimeter=parallelogramPerimeter;whiteSpace=wrap;html=1;fixedSize=1;" parent="1" vertex="1">
          <mxGeometry x="670" y="650" width="130" height="30" as="geometry" />
        </mxCell>
        <mxCell id="rmpbK_NkBcnPXk61O0qN-146" style="edgeStyle=orthogonalEdgeStyle;rounded=0;orthogonalLoop=1;jettySize=auto;html=1;exitX=1;exitY=0.5;exitDx=0;exitDy=0;entryX=0;entryY=0.5;entryDx=0;entryDy=0;" parent="1" source="rmpbK_NkBcnPXk61O0qN-139" target="rmpbK_NkBcnPXk61O0qN-140" edge="1">
          <mxGeometry relative="1" as="geometry" />
        </mxCell>
        <mxCell id="rmpbK_NkBcnPXk61O0qN-147" style="edgeStyle=orthogonalEdgeStyle;rounded=0;orthogonalLoop=1;jettySize=auto;html=1;exitX=0.5;exitY=1;exitDx=0;exitDy=0;entryX=0.5;entryY=0;entryDx=0;entryDy=0;" parent="1" source="rmpbK_NkBcnPXk61O0qN-139" target="rmpbK_NkBcnPXk61O0qN-143" edge="1">
          <mxGeometry relative="1" as="geometry" />
        </mxCell>
        <mxCell id="rmpbK_NkBcnPXk61O0qN-139" value="1" style="rhombus;whiteSpace=wrap;html=1;" parent="1" vertex="1">
          <mxGeometry x="840" y="582.5" width="45" height="40" as="geometry" />
        </mxCell>
        <mxCell id="rmpbK_NkBcnPXk61O0qN-148" style="edgeStyle=orthogonalEdgeStyle;rounded=0;orthogonalLoop=1;jettySize=auto;html=1;exitX=0.5;exitY=1;exitDx=0;exitDy=0;entryX=0.5;entryY=0;entryDx=0;entryDy=0;" parent="1" source="rmpbK_NkBcnPXk61O0qN-140" target="rmpbK_NkBcnPXk61O0qN-142" edge="1">
          <mxGeometry relative="1" as="geometry" />
        </mxCell>
        <mxCell id="rmpbK_NkBcnPXk61O0qN-140" value="sign in with google" style="shape=parallelogram;perimeter=parallelogramPerimeter;whiteSpace=wrap;html=1;fixedSize=1;" parent="1" vertex="1">
          <mxGeometry x="915" y="587.5" width="130" height="30" as="geometry" />
        </mxCell>
        <mxCell id="rmpbK_NkBcnPXk61O0qN-149" style="edgeStyle=orthogonalEdgeStyle;rounded=0;orthogonalLoop=1;jettySize=auto;html=1;exitX=0;exitY=0.5;exitDx=0;exitDy=0;entryX=1;entryY=0.5;entryDx=0;entryDy=0;" parent="1" source="rmpbK_NkBcnPXk61O0qN-142" target="rmpbK_NkBcnPXk61O0qN-143" edge="1">
          <mxGeometry relative="1" as="geometry" />
        </mxCell>
        <mxCell id="rmpbK_NkBcnPXk61O0qN-150" style="edgeStyle=orthogonalEdgeStyle;rounded=0;orthogonalLoop=1;jettySize=auto;html=1;exitX=1;exitY=0.5;exitDx=0;exitDy=0;entryX=0;entryY=0.5;entryDx=0;entryDy=0;" parent="1" source="rmpbK_NkBcnPXk61O0qN-142" target="rmpbK_NkBcnPXk61O0qN-144" edge="1">
          <mxGeometry relative="1" as="geometry" />
        </mxCell>
        <mxCell id="rmpbK_NkBcnPXk61O0qN-142" value="3" style="rhombus;whiteSpace=wrap;html=1;" parent="1" vertex="1">
          <mxGeometry x="957.5" y="645" width="45" height="40" as="geometry" />
        </mxCell>
        <mxCell id="rmpbK_NkBcnPXk61O0qN-143" value="message send" style="shape=parallelogram;perimeter=parallelogramPerimeter;whiteSpace=wrap;html=1;fixedSize=1;" parent="1" vertex="1">
          <mxGeometry x="798" y="650" width="130" height="30" as="geometry" />
        </mxCell>
        <mxCell id="rmpbK_NkBcnPXk61O0qN-144" value="reload" style="rounded=0;whiteSpace=wrap;html=1;" parent="1" vertex="1">
          <mxGeometry x="1040" y="650" width="70" height="30" as="geometry" />
        </mxCell>
        <mxCell id="rmpbK_NkBcnPXk61O0qN-153" value="" style="endArrow=classic;html=1;rounded=0;exitX=0.5;exitY=0;exitDx=0;exitDy=0;entryX=1;entryY=0.5;entryDx=0;entryDy=0;" parent="1" source="rmpbK_NkBcnPXk61O0qN-144" target="rmpbK_NkBcnPXk61O0qN-140" edge="1">
          <mxGeometry width="50" height="50" relative="1" as="geometry">
            <mxPoint x="960" y="660" as="sourcePoint" />
            <mxPoint x="1010" y="610" as="targetPoint" />
            <Array as="points">
              <mxPoint x="1075" y="603" />
            </Array>
          </mxGeometry>
        </mxCell>
        <mxCell id="rmpbK_NkBcnPXk61O0qN-154" value="yes" style="text;html=1;align=center;verticalAlign=middle;whiteSpace=wrap;rounded=0;" parent="1" vertex="1">
          <mxGeometry x="757.5" y="585" width="27.5" height="15" as="geometry" />
        </mxCell>
        <mxCell id="rmpbK_NkBcnPXk61O0qN-155" value="yes" style="text;html=1;align=center;verticalAlign=middle;whiteSpace=wrap;rounded=0;" parent="1" vertex="1">
          <mxGeometry x="860" y="622.5" width="27.5" height="15" as="geometry" />
        </mxCell>
        <mxCell id="rmpbK_NkBcnPXk61O0qN-156" value="yes" style="text;html=1;align=center;verticalAlign=middle;whiteSpace=wrap;rounded=0;" parent="1" vertex="1">
          <mxGeometry x="930" y="650" width="27.5" height="15" as="geometry" />
        </mxCell>
        <mxCell id="rmpbK_NkBcnPXk61O0qN-157" value="no" style="text;html=1;align=center;verticalAlign=middle;whiteSpace=wrap;rounded=0;" parent="1" vertex="1">
          <mxGeometry x="730" y="622.5" width="27.5" height="15" as="geometry" />
        </mxCell>
        <mxCell id="rmpbK_NkBcnPXk61O0qN-158" value="no" style="text;html=1;align=center;verticalAlign=middle;whiteSpace=wrap;rounded=0;" parent="1" vertex="1">
          <mxGeometry x="880" y="587.5" width="27.5" height="15" as="geometry" />
        </mxCell>
        <mxCell id="rmpbK_NkBcnPXk61O0qN-159" value="no" style="text;html=1;align=center;verticalAlign=middle;whiteSpace=wrap;rounded=0;" parent="1" vertex="1">
          <mxGeometry x="1000" y="650" width="27.5" height="15" as="geometry" />
        </mxCell>
        <mxCell id="rmpbK_NkBcnPXk61O0qN-163" style="edgeStyle=orthogonalEdgeStyle;rounded=0;orthogonalLoop=1;jettySize=auto;html=1;exitX=0.5;exitY=1;exitDx=0;exitDy=0;entryX=0.5;entryY=0;entryDx=0;entryDy=0;" parent="1" source="rmpbK_NkBcnPXk61O0qN-160" target="rmpbK_NkBcnPXk61O0qN-161" edge="1">
          <mxGeometry relative="1" as="geometry" />
        </mxCell>
        <mxCell id="rmpbK_NkBcnPXk61O0qN-160" value="blog list" style="shape=parallelogram;perimeter=parallelogramPerimeter;whiteSpace=wrap;html=1;fixedSize=1;" parent="1" vertex="1">
          <mxGeometry x="270" y="265" width="130" height="30" as="geometry" />
        </mxCell>
        <mxCell id="rmpbK_NkBcnPXk61O0qN-165" style="edgeStyle=orthogonalEdgeStyle;rounded=0;orthogonalLoop=1;jettySize=auto;html=1;exitX=0.5;exitY=1;exitDx=0;exitDy=0;" parent="1" source="rmpbK_NkBcnPXk61O0qN-161" target="rmpbK_NkBcnPXk61O0qN-164" edge="1">
          <mxGeometry relative="1" as="geometry" />
        </mxCell>
        <mxCell id="rmpbK_NkBcnPXk61O0qN-161" value="choose blog" style="rounded=0;whiteSpace=wrap;html=1;" parent="1" vertex="1">
          <mxGeometry x="280" y="317.5" width="100" height="30" as="geometry" />
        </mxCell>
        <mxCell id="rmpbK_NkBcnPXk61O0qN-162" style="edgeStyle=orthogonalEdgeStyle;rounded=0;orthogonalLoop=1;jettySize=auto;html=1;exitX=0.5;exitY=1;exitDx=0;exitDy=0;entryX=0.567;entryY=0.056;entryDx=0;entryDy=0;entryPerimeter=0;" parent="1" source="rmpbK_NkBcnPXk61O0qN-6" target="rmpbK_NkBcnPXk61O0qN-160" edge="1">
          <mxGeometry relative="1" as="geometry" />
        </mxCell>
        <mxCell id="rmpbK_NkBcnPXk61O0qN-167" style="edgeStyle=orthogonalEdgeStyle;rounded=0;orthogonalLoop=1;jettySize=auto;html=1;exitX=0;exitY=0.5;exitDx=0;exitDy=0;entryX=1;entryY=0.5;entryDx=0;entryDy=0;" parent="1" source="rmpbK_NkBcnPXk61O0qN-164" target="rmpbK_NkBcnPXk61O0qN-166" edge="1">
          <mxGeometry relative="1" as="geometry" />
        </mxCell>
        <mxCell id="rmpbK_NkBcnPXk61O0qN-164" value="read blog" style="shape=parallelogram;perimeter=parallelogramPerimeter;whiteSpace=wrap;html=1;fixedSize=1;" parent="1" vertex="1">
          <mxGeometry x="265" y="369" width="130" height="30" as="geometry" />
        </mxCell>
        <mxCell id="rmpbK_NkBcnPXk61O0qN-185" style="edgeStyle=orthogonalEdgeStyle;rounded=0;orthogonalLoop=1;jettySize=auto;html=1;exitX=0;exitY=0.5;exitDx=0;exitDy=0;entryX=0.5;entryY=0;entryDx=0;entryDy=0;" parent="1" source="rmpbK_NkBcnPXk61O0qN-166" target="rmpbK_NkBcnPXk61O0qN-184" edge="1">
          <mxGeometry relative="1" as="geometry" />
        </mxCell>
        <mxCell id="rmpbK_NkBcnPXk61O0qN-166" value="add comment" style="rounded=0;whiteSpace=wrap;html=1;" parent="1" vertex="1">
          <mxGeometry x="130" y="369" width="100" height="30" as="geometry" />
        </mxCell>
        <mxCell id="rmpbK_NkBcnPXk61O0qN-168" value="1" style="rhombus;whiteSpace=wrap;html=1;" parent="1" vertex="1">
          <mxGeometry y="440" width="45" height="40" as="geometry" />
        </mxCell>
        <mxCell id="rmpbK_NkBcnPXk61O0qN-169" value="sign in with google" style="shape=parallelogram;perimeter=parallelogramPerimeter;whiteSpace=wrap;html=1;fixedSize=1;" parent="1" vertex="1">
          <mxGeometry x="-42.5" y="505" width="130" height="30" as="geometry" />
        </mxCell>
        <mxCell id="rmpbK_NkBcnPXk61O0qN-170" value="3" style="rhombus;whiteSpace=wrap;html=1;" parent="1" vertex="1">
          <mxGeometry y="560" width="45" height="40" as="geometry" />
        </mxCell>
        <mxCell id="rmpbK_NkBcnPXk61O0qN-171" value="reload" style="rounded=0;whiteSpace=wrap;html=1;" parent="1" vertex="1">
          <mxGeometry x="90" y="565" width="70" height="30" as="geometry" />
        </mxCell>
        <mxCell id="rmpbK_NkBcnPXk61O0qN-188" style="edgeStyle=orthogonalEdgeStyle;rounded=0;orthogonalLoop=1;jettySize=auto;html=1;exitX=0.5;exitY=1;exitDx=0;exitDy=0;entryX=0.5;entryY=0;entryDx=0;entryDy=0;" parent="1" source="rmpbK_NkBcnPXk61O0qN-172" target="rmpbK_NkBcnPXk61O0qN-186" edge="1">
          <mxGeometry relative="1" as="geometry">
            <Array as="points">
              <mxPoint x="23" y="670" />
              <mxPoint x="-35" y="670" />
            </Array>
          </mxGeometry>
        </mxCell>
        <mxCell id="rmpbK_NkBcnPXk61O0qN-189" style="edgeStyle=orthogonalEdgeStyle;rounded=0;orthogonalLoop=1;jettySize=auto;html=1;exitX=0.5;exitY=1;exitDx=0;exitDy=0;entryX=0.5;entryY=0;entryDx=0;entryDy=0;" parent="1" source="rmpbK_NkBcnPXk61O0qN-172" target="rmpbK_NkBcnPXk61O0qN-187" edge="1">
          <mxGeometry relative="1" as="geometry">
            <Array as="points">
              <mxPoint x="23" y="670" />
              <mxPoint x="65" y="670" />
            </Array>
          </mxGeometry>
        </mxCell>
        <mxCell id="rmpbK_NkBcnPXk61O0qN-172" value="comment added" style="shape=parallelogram;perimeter=parallelogramPerimeter;whiteSpace=wrap;html=1;fixedSize=1;" parent="1" vertex="1">
          <mxGeometry x="-42.5" y="630" width="130" height="30" as="geometry" />
        </mxCell>
        <mxCell id="rmpbK_NkBcnPXk61O0qN-173" value="" style="endArrow=classic;html=1;rounded=0;exitX=0;exitY=0.5;exitDx=0;exitDy=0;entryX=1;entryY=0.5;entryDx=0;entryDy=0;" parent="1" source="rmpbK_NkBcnPXk61O0qN-184" target="rmpbK_NkBcnPXk61O0qN-168" edge="1">
          <mxGeometry width="50" height="50" relative="1" as="geometry">
            <mxPoint x="80" y="460" as="sourcePoint" />
            <mxPoint x="210" y="495" as="targetPoint" />
          </mxGeometry>
        </mxCell>
        <mxCell id="rmpbK_NkBcnPXk61O0qN-174" value="" style="endArrow=classic;html=1;rounded=0;exitX=0.5;exitY=1;exitDx=0;exitDy=0;entryX=0.5;entryY=0;entryDx=0;entryDy=0;" parent="1" source="rmpbK_NkBcnPXk61O0qN-168" target="rmpbK_NkBcnPXk61O0qN-169" edge="1">
          <mxGeometry width="50" height="50" relative="1" as="geometry">
            <mxPoint x="160" y="545" as="sourcePoint" />
            <mxPoint x="210" y="495" as="targetPoint" />
          </mxGeometry>
        </mxCell>
        <mxCell id="rmpbK_NkBcnPXk61O0qN-175" value="" style="endArrow=classic;html=1;rounded=0;exitX=0.5;exitY=1;exitDx=0;exitDy=0;entryX=0.5;entryY=0;entryDx=0;entryDy=0;" parent="1" source="rmpbK_NkBcnPXk61O0qN-169" target="rmpbK_NkBcnPXk61O0qN-170" edge="1">
          <mxGeometry width="50" height="50" relative="1" as="geometry">
            <mxPoint x="160" y="545" as="sourcePoint" />
            <mxPoint x="210" y="495" as="targetPoint" />
          </mxGeometry>
        </mxCell>
        <mxCell id="rmpbK_NkBcnPXk61O0qN-176" value="" style="endArrow=classic;html=1;rounded=0;exitX=0.5;exitY=1;exitDx=0;exitDy=0;" parent="1" source="rmpbK_NkBcnPXk61O0qN-170" target="rmpbK_NkBcnPXk61O0qN-172" edge="1">
          <mxGeometry width="50" height="50" relative="1" as="geometry">
            <mxPoint x="160" y="545" as="sourcePoint" />
            <mxPoint x="210" y="495" as="targetPoint" />
          </mxGeometry>
        </mxCell>
        <mxCell id="rmpbK_NkBcnPXk61O0qN-177" value="" style="endArrow=classic;html=1;rounded=0;exitX=1;exitY=0.5;exitDx=0;exitDy=0;entryX=0;entryY=0.5;entryDx=0;entryDy=0;" parent="1" source="rmpbK_NkBcnPXk61O0qN-170" target="rmpbK_NkBcnPXk61O0qN-171" edge="1">
          <mxGeometry width="50" height="50" relative="1" as="geometry">
            <mxPoint x="160" y="545" as="sourcePoint" />
            <mxPoint x="210" y="495" as="targetPoint" />
          </mxGeometry>
        </mxCell>
        <mxCell id="rmpbK_NkBcnPXk61O0qN-178" value="" style="endArrow=classic;html=1;rounded=0;exitX=0.5;exitY=0;exitDx=0;exitDy=0;entryX=1;entryY=0.5;entryDx=0;entryDy=0;" parent="1" source="rmpbK_NkBcnPXk61O0qN-171" target="rmpbK_NkBcnPXk61O0qN-169" edge="1">
          <mxGeometry width="50" height="50" relative="1" as="geometry">
            <mxPoint x="160" y="545" as="sourcePoint" />
            <mxPoint x="210" y="495" as="targetPoint" />
            <Array as="points">
              <mxPoint x="125" y="520" />
            </Array>
          </mxGeometry>
        </mxCell>
        <mxCell id="rmpbK_NkBcnPXk61O0qN-179" value="" style="endArrow=classic;html=1;rounded=0;exitX=0;exitY=0.5;exitDx=0;exitDy=0;entryX=0;entryY=0.5;entryDx=0;entryDy=0;" parent="1" source="rmpbK_NkBcnPXk61O0qN-168" target="rmpbK_NkBcnPXk61O0qN-172" edge="1">
          <mxGeometry width="50" height="50" relative="1" as="geometry">
            <mxPoint x="160" y="545" as="sourcePoint" />
            <mxPoint x="210" y="495" as="targetPoint" />
            <Array as="points">
              <mxPoint x="-60" y="460" />
              <mxPoint x="-60" y="645" />
            </Array>
          </mxGeometry>
        </mxCell>
        <mxCell id="rmpbK_NkBcnPXk61O0qN-180" value="yes" style="text;html=1;align=center;verticalAlign=middle;whiteSpace=wrap;rounded=0;" parent="1" vertex="1">
          <mxGeometry x="-27.5" y="445" width="27.5" height="15" as="geometry" />
        </mxCell>
        <mxCell id="rmpbK_NkBcnPXk61O0qN-181" value="yes" style="text;html=1;align=center;verticalAlign=middle;whiteSpace=wrap;rounded=0;" parent="1" vertex="1">
          <mxGeometry x="20" y="600" width="27.5" height="15" as="geometry" />
        </mxCell>
        <mxCell id="rmpbK_NkBcnPXk61O0qN-182" value="no" style="text;html=1;align=center;verticalAlign=middle;whiteSpace=wrap;rounded=0;" parent="1" vertex="1">
          <mxGeometry x="20" y="480" width="27.5" height="15" as="geometry" />
        </mxCell>
        <mxCell id="rmpbK_NkBcnPXk61O0qN-183" value="no" style="text;html=1;align=center;verticalAlign=middle;whiteSpace=wrap;rounded=0;" parent="1" vertex="1">
          <mxGeometry x="40" y="565" width="27.5" height="15" as="geometry" />
        </mxCell>
        <mxCell id="rmpbK_NkBcnPXk61O0qN-184" value="4" style="rhombus;whiteSpace=wrap;html=1;" parent="1" vertex="1">
          <mxGeometry x="80" y="440" width="45" height="40" as="geometry" />
        </mxCell>
        <mxCell id="rmpbK_NkBcnPXk61O0qN-206" style="edgeStyle=orthogonalEdgeStyle;rounded=0;orthogonalLoop=1;jettySize=auto;html=1;exitX=0.5;exitY=1;exitDx=0;exitDy=0;entryX=0.5;entryY=0;entryDx=0;entryDy=0;" parent="1" source="rmpbK_NkBcnPXk61O0qN-186" target="rmpbK_NkBcnPXk61O0qN-190" edge="1">
          <mxGeometry relative="1" as="geometry">
            <Array as="points">
              <mxPoint x="-35" y="730" />
              <mxPoint x="23" y="730" />
            </Array>
          </mxGeometry>
        </mxCell>
        <mxCell id="rmpbK_NkBcnPXk61O0qN-186" value="like" style="rounded=0;whiteSpace=wrap;html=1;" parent="1" vertex="1">
          <mxGeometry x="-70" y="685" width="70" height="30" as="geometry" />
        </mxCell>
        <mxCell id="rmpbK_NkBcnPXk61O0qN-207" style="edgeStyle=orthogonalEdgeStyle;rounded=0;orthogonalLoop=1;jettySize=auto;html=1;exitX=0.5;exitY=1;exitDx=0;exitDy=0;entryX=0.5;entryY=0;entryDx=0;entryDy=0;" parent="1" source="rmpbK_NkBcnPXk61O0qN-187" target="rmpbK_NkBcnPXk61O0qN-190" edge="1">
          <mxGeometry relative="1" as="geometry">
            <Array as="points">
              <mxPoint x="65" y="730" />
              <mxPoint x="23" y="730" />
            </Array>
          </mxGeometry>
        </mxCell>
        <mxCell id="rmpbK_NkBcnPXk61O0qN-187" value="reply" style="rounded=0;whiteSpace=wrap;html=1;" parent="1" vertex="1">
          <mxGeometry x="30" y="685" width="70" height="30" as="geometry" />
        </mxCell>
        <mxCell id="rmpbK_NkBcnPXk61O0qN-190" value="1" style="rhombus;whiteSpace=wrap;html=1;" parent="1" vertex="1">
          <mxGeometry y="750" width="45" height="40" as="geometry" />
        </mxCell>
        <mxCell id="rmpbK_NkBcnPXk61O0qN-191" value="sign in with google" style="shape=parallelogram;perimeter=parallelogramPerimeter;whiteSpace=wrap;html=1;fixedSize=1;" parent="1" vertex="1">
          <mxGeometry x="-42.5" y="815" width="130" height="30" as="geometry" />
        </mxCell>
        <mxCell id="rmpbK_NkBcnPXk61O0qN-192" value="3" style="rhombus;whiteSpace=wrap;html=1;" parent="1" vertex="1">
          <mxGeometry y="870" width="45" height="40" as="geometry" />
        </mxCell>
        <mxCell id="rmpbK_NkBcnPXk61O0qN-193" value="reload" style="rounded=0;whiteSpace=wrap;html=1;" parent="1" vertex="1">
          <mxGeometry x="90" y="875" width="70" height="30" as="geometry" />
        </mxCell>
        <mxCell id="rmpbK_NkBcnPXk61O0qN-194" value="liked/ replied" style="shape=parallelogram;perimeter=parallelogramPerimeter;whiteSpace=wrap;html=1;fixedSize=1;" parent="1" vertex="1">
          <mxGeometry x="-42.5" y="940" width="130" height="30" as="geometry" />
        </mxCell>
        <mxCell id="rmpbK_NkBcnPXk61O0qN-196" value="" style="endArrow=classic;html=1;rounded=0;exitX=0.5;exitY=1;exitDx=0;exitDy=0;entryX=0.5;entryY=0;entryDx=0;entryDy=0;" parent="1" source="rmpbK_NkBcnPXk61O0qN-190" target="rmpbK_NkBcnPXk61O0qN-191" edge="1">
          <mxGeometry width="50" height="50" relative="1" as="geometry">
            <mxPoint x="160" y="855" as="sourcePoint" />
            <mxPoint x="210" y="805" as="targetPoint" />
          </mxGeometry>
        </mxCell>
        <mxCell id="rmpbK_NkBcnPXk61O0qN-197" value="" style="endArrow=classic;html=1;rounded=0;exitX=0.5;exitY=1;exitDx=0;exitDy=0;entryX=0.5;entryY=0;entryDx=0;entryDy=0;" parent="1" source="rmpbK_NkBcnPXk61O0qN-191" target="rmpbK_NkBcnPXk61O0qN-192" edge="1">
          <mxGeometry width="50" height="50" relative="1" as="geometry">
            <mxPoint x="160" y="855" as="sourcePoint" />
            <mxPoint x="210" y="805" as="targetPoint" />
          </mxGeometry>
        </mxCell>
        <mxCell id="rmpbK_NkBcnPXk61O0qN-198" value="" style="endArrow=classic;html=1;rounded=0;exitX=0.5;exitY=1;exitDx=0;exitDy=0;" parent="1" source="rmpbK_NkBcnPXk61O0qN-192" target="rmpbK_NkBcnPXk61O0qN-194" edge="1">
          <mxGeometry width="50" height="50" relative="1" as="geometry">
            <mxPoint x="160" y="855" as="sourcePoint" />
            <mxPoint x="210" y="805" as="targetPoint" />
          </mxGeometry>
        </mxCell>
        <mxCell id="rmpbK_NkBcnPXk61O0qN-199" value="" style="endArrow=classic;html=1;rounded=0;exitX=1;exitY=0.5;exitDx=0;exitDy=0;entryX=0;entryY=0.5;entryDx=0;entryDy=0;" parent="1" source="rmpbK_NkBcnPXk61O0qN-192" target="rmpbK_NkBcnPXk61O0qN-193" edge="1">
          <mxGeometry width="50" height="50" relative="1" as="geometry">
            <mxPoint x="160" y="855" as="sourcePoint" />
            <mxPoint x="210" y="805" as="targetPoint" />
          </mxGeometry>
        </mxCell>
        <mxCell id="rmpbK_NkBcnPXk61O0qN-200" value="" style="endArrow=classic;html=1;rounded=0;exitX=0.5;exitY=0;exitDx=0;exitDy=0;entryX=1;entryY=0.5;entryDx=0;entryDy=0;" parent="1" source="rmpbK_NkBcnPXk61O0qN-193" target="rmpbK_NkBcnPXk61O0qN-191" edge="1">
          <mxGeometry width="50" height="50" relative="1" as="geometry">
            <mxPoint x="160" y="855" as="sourcePoint" />
            <mxPoint x="210" y="805" as="targetPoint" />
            <Array as="points">
              <mxPoint x="125" y="830" />
            </Array>
          </mxGeometry>
        </mxCell>
        <mxCell id="rmpbK_NkBcnPXk61O0qN-201" value="" style="endArrow=classic;html=1;rounded=0;exitX=0;exitY=0.5;exitDx=0;exitDy=0;entryX=0;entryY=0.5;entryDx=0;entryDy=0;" parent="1" source="rmpbK_NkBcnPXk61O0qN-190" target="rmpbK_NkBcnPXk61O0qN-194" edge="1">
          <mxGeometry width="50" height="50" relative="1" as="geometry">
            <mxPoint x="160" y="855" as="sourcePoint" />
            <mxPoint x="210" y="805" as="targetPoint" />
            <Array as="points">
              <mxPoint x="-60" y="770" />
              <mxPoint x="-60" y="955" />
            </Array>
          </mxGeometry>
        </mxCell>
        <mxCell id="rmpbK_NkBcnPXk61O0qN-202" value="yes" style="text;html=1;align=center;verticalAlign=middle;whiteSpace=wrap;rounded=0;" parent="1" vertex="1">
          <mxGeometry x="-27.5" y="755" width="27.5" height="15" as="geometry" />
        </mxCell>
        <mxCell id="rmpbK_NkBcnPXk61O0qN-203" value="yes" style="text;html=1;align=center;verticalAlign=middle;whiteSpace=wrap;rounded=0;" parent="1" vertex="1">
          <mxGeometry x="20" y="910" width="27.5" height="15" as="geometry" />
        </mxCell>
        <mxCell id="rmpbK_NkBcnPXk61O0qN-204" value="no" style="text;html=1;align=center;verticalAlign=middle;whiteSpace=wrap;rounded=0;" parent="1" vertex="1">
          <mxGeometry x="20" y="790" width="27.5" height="15" as="geometry" />
        </mxCell>
        <mxCell id="rmpbK_NkBcnPXk61O0qN-205" value="no" style="text;html=1;align=center;verticalAlign=middle;whiteSpace=wrap;rounded=0;" parent="1" vertex="1">
          <mxGeometry x="40" y="875" width="27.5" height="15" as="geometry" />
        </mxCell>
        <mxCell id="rmpbK_NkBcnPXk61O0qN-208" value="A" style="ellipse;whiteSpace=wrap;html=1;aspect=fixed;" parent="1" vertex="1">
          <mxGeometry x="202.5" y="262.5" width="25" height="25" as="geometry" />
        </mxCell>
        <mxCell id="rmpbK_NkBcnPXk61O0qN-210" value="" style="endArrow=none;html=1;rounded=0;exitX=1;exitY=0.5;exitDx=0;exitDy=0;entryX=0;entryY=0.5;entryDx=0;entryDy=0;" parent="1" source="rmpbK_NkBcnPXk61O0qN-73" target="rmpbK_NkBcnPXk61O0qN-60" edge="1">
          <mxGeometry width="50" height="50" relative="1" as="geometry">
            <mxPoint x="-60" y="480" as="sourcePoint" />
            <mxPoint x="-10" y="430" as="targetPoint" />
            <Array as="points">
              <mxPoint x="-110" y="450" />
              <mxPoint x="-110" y="303" />
            </Array>
          </mxGeometry>
        </mxCell>
        <mxCell id="rmpbK_NkBcnPXk61O0qN-211" value="" style="endArrow=none;html=1;rounded=0;exitX=0;exitY=0.5;exitDx=0;exitDy=0;" parent="1" source="rmpbK_NkBcnPXk61O0qN-61" edge="1">
          <mxGeometry width="50" height="50" relative="1" as="geometry">
            <mxPoint x="-80" y="490" as="sourcePoint" />
            <mxPoint x="-110" y="342" as="targetPoint" />
          </mxGeometry>
        </mxCell>
        <mxCell id="rmpbK_NkBcnPXk61O0qN-212" value="" style="endArrow=none;html=1;rounded=0;entryX=0;entryY=0.5;entryDx=0;entryDy=0;" parent="1" target="rmpbK_NkBcnPXk61O0qN-62" edge="1">
          <mxGeometry width="50" height="50" relative="1" as="geometry">
            <mxPoint x="-110" y="385" as="sourcePoint" />
            <mxPoint x="-30" y="440" as="targetPoint" />
          </mxGeometry>
        </mxCell>
        <mxCell id="rmpbK_NkBcnPXk61O0qN-218" style="edgeStyle=orthogonalEdgeStyle;rounded=0;orthogonalLoop=1;jettySize=auto;html=1;exitX=0.5;exitY=1;exitDx=0;exitDy=0;" parent="1" source="rmpbK_NkBcnPXk61O0qN-213" target="rmpbK_NkBcnPXk61O0qN-216" edge="1">
          <mxGeometry relative="1" as="geometry">
            <Array as="points">
              <mxPoint x="-587.5" y="440" />
              <mxPoint x="-665.5" y="440" />
            </Array>
          </mxGeometry>
        </mxCell>
        <mxCell id="rmpbK_NkBcnPXk61O0qN-213" value="A" style="ellipse;whiteSpace=wrap;html=1;aspect=fixed;" parent="1" vertex="1">
          <mxGeometry x="-600" y="400" width="25" height="25" as="geometry" />
        </mxCell>
        <mxCell id="rmpbK_NkBcnPXk61O0qN-249" style="edgeStyle=orthogonalEdgeStyle;rounded=0;orthogonalLoop=1;jettySize=auto;html=1;exitX=0.5;exitY=1;exitDx=0;exitDy=0;entryX=0.5;entryY=0;entryDx=0;entryDy=0;" parent="1" source="rmpbK_NkBcnPXk61O0qN-216" target="rmpbK_NkBcnPXk61O0qN-245" edge="1">
          <mxGeometry relative="1" as="geometry" />
        </mxCell>
        <mxCell id="rmpbK_NkBcnPXk61O0qN-216" value="sign up" style="shape=parallelogram;perimeter=parallelogramPerimeter;whiteSpace=wrap;html=1;fixedSize=1;" parent="1" vertex="1">
          <mxGeometry x="-730" y="460" width="130" height="30" as="geometry" />
        </mxCell>
        <mxCell id="rmpbK_NkBcnPXk61O0qN-217" value="contact" style="shape=parallelogram;perimeter=parallelogramPerimeter;whiteSpace=wrap;html=1;fixedSize=1;" parent="1" vertex="1">
          <mxGeometry x="-600" y="460" width="130" height="30" as="geometry" />
        </mxCell>
        <mxCell id="rmpbK_NkBcnPXk61O0qN-219" style="edgeStyle=orthogonalEdgeStyle;rounded=0;orthogonalLoop=1;jettySize=auto;html=1;exitX=0.5;exitY=1;exitDx=0;exitDy=0;entryX=0.611;entryY=-0.066;entryDx=0;entryDy=0;entryPerimeter=0;" parent="1" source="rmpbK_NkBcnPXk61O0qN-213" target="rmpbK_NkBcnPXk61O0qN-217" edge="1">
          <mxGeometry relative="1" as="geometry">
            <Array as="points">
              <mxPoint x="-587.5" y="440" />
              <mxPoint x="-520.5" y="440" />
            </Array>
          </mxGeometry>
        </mxCell>
        <mxCell id="rmpbK_NkBcnPXk61O0qN-220" value="enter data" style="rounded=0;whiteSpace=wrap;html=1;" parent="1" vertex="1">
          <mxGeometry x="-594.9599999999999" y="512.5" width="100" height="30" as="geometry" />
        </mxCell>
        <mxCell id="rmpbK_NkBcnPXk61O0qN-221" style="edgeStyle=orthogonalEdgeStyle;rounded=0;orthogonalLoop=1;jettySize=auto;html=1;exitX=0.5;exitY=1;exitDx=0;exitDy=0;entryX=0.5;entryY=0;entryDx=0;entryDy=0;" parent="1" source="rmpbK_NkBcnPXk61O0qN-223" target="rmpbK_NkBcnPXk61O0qN-226" edge="1">
          <mxGeometry relative="1" as="geometry" />
        </mxCell>
        <mxCell id="rmpbK_NkBcnPXk61O0qN-222" style="edgeStyle=orthogonalEdgeStyle;rounded=0;orthogonalLoop=1;jettySize=auto;html=1;exitX=1;exitY=0.5;exitDx=0;exitDy=0;entryX=0;entryY=0.5;entryDx=0;entryDy=0;" parent="1" source="rmpbK_NkBcnPXk61O0qN-223" target="rmpbK_NkBcnPXk61O0qN-229" edge="1">
          <mxGeometry relative="1" as="geometry" />
        </mxCell>
        <mxCell id="rmpbK_NkBcnPXk61O0qN-223" value="4" style="rhombus;whiteSpace=wrap;html=1;" parent="1" vertex="1">
          <mxGeometry x="-567.4599999999999" y="575" width="45" height="40" as="geometry" />
        </mxCell>
        <mxCell id="rmpbK_NkBcnPXk61O0qN-224" value="" style="endArrow=classic;html=1;rounded=0;exitX=0.5;exitY=1;exitDx=0;exitDy=0;entryX=0.5;entryY=0;entryDx=0;entryDy=0;" parent="1" source="rmpbK_NkBcnPXk61O0qN-220" target="rmpbK_NkBcnPXk61O0qN-223" edge="1">
          <mxGeometry width="50" height="50" relative="1" as="geometry">
            <mxPoint x="-599.9599999999999" y="482.5" as="sourcePoint" />
            <mxPoint x="-549.9599999999999" y="432.5" as="targetPoint" />
          </mxGeometry>
        </mxCell>
        <mxCell id="rmpbK_NkBcnPXk61O0qN-225" style="edgeStyle=orthogonalEdgeStyle;rounded=0;orthogonalLoop=1;jettySize=auto;html=1;exitX=0;exitY=0.5;exitDx=0;exitDy=0;entryX=0;entryY=0.5;entryDx=0;entryDy=0;" parent="1" source="rmpbK_NkBcnPXk61O0qN-226" target="rmpbK_NkBcnPXk61O0qN-220" edge="1">
          <mxGeometry relative="1" as="geometry">
            <Array as="points">
              <mxPoint x="-619.9599999999999" y="657.5" />
              <mxPoint x="-619.9599999999999" y="527.5" />
            </Array>
          </mxGeometry>
        </mxCell>
        <mxCell id="rmpbK_NkBcnPXk61O0qN-226" value="try again" style="shape=parallelogram;perimeter=parallelogramPerimeter;whiteSpace=wrap;html=1;fixedSize=1;" parent="1" vertex="1">
          <mxGeometry x="-609.9599999999999" y="642.5" width="130" height="30" as="geometry" />
        </mxCell>
        <mxCell id="rmpbK_NkBcnPXk61O0qN-227" style="edgeStyle=orthogonalEdgeStyle;rounded=0;orthogonalLoop=1;jettySize=auto;html=1;exitX=1;exitY=0.5;exitDx=0;exitDy=0;entryX=0;entryY=0.5;entryDx=0;entryDy=0;" parent="1" source="rmpbK_NkBcnPXk61O0qN-229" target="rmpbK_NkBcnPXk61O0qN-231" edge="1">
          <mxGeometry relative="1" as="geometry" />
        </mxCell>
        <mxCell id="rmpbK_NkBcnPXk61O0qN-228" style="edgeStyle=orthogonalEdgeStyle;rounded=0;orthogonalLoop=1;jettySize=auto;html=1;exitX=0.5;exitY=1;exitDx=0;exitDy=0;entryX=0.5;entryY=0;entryDx=0;entryDy=0;" parent="1" source="rmpbK_NkBcnPXk61O0qN-229" target="rmpbK_NkBcnPXk61O0qN-235" edge="1">
          <mxGeometry relative="1" as="geometry" />
        </mxCell>
        <mxCell id="rmpbK_NkBcnPXk61O0qN-229" value="1" style="rhombus;whiteSpace=wrap;html=1;" parent="1" vertex="1">
          <mxGeometry x="-439.9599999999999" y="575" width="45" height="40" as="geometry" />
        </mxCell>
        <mxCell id="rmpbK_NkBcnPXk61O0qN-230" style="edgeStyle=orthogonalEdgeStyle;rounded=0;orthogonalLoop=1;jettySize=auto;html=1;exitX=0.5;exitY=1;exitDx=0;exitDy=0;entryX=0.5;entryY=0;entryDx=0;entryDy=0;" parent="1" source="rmpbK_NkBcnPXk61O0qN-231" target="rmpbK_NkBcnPXk61O0qN-234" edge="1">
          <mxGeometry relative="1" as="geometry" />
        </mxCell>
        <mxCell id="rmpbK_NkBcnPXk61O0qN-231" value="sign in with google" style="shape=parallelogram;perimeter=parallelogramPerimeter;whiteSpace=wrap;html=1;fixedSize=1;" parent="1" vertex="1">
          <mxGeometry x="-364.9599999999999" y="580" width="130" height="30" as="geometry" />
        </mxCell>
        <mxCell id="rmpbK_NkBcnPXk61O0qN-232" style="edgeStyle=orthogonalEdgeStyle;rounded=0;orthogonalLoop=1;jettySize=auto;html=1;exitX=0;exitY=0.5;exitDx=0;exitDy=0;entryX=1;entryY=0.5;entryDx=0;entryDy=0;" parent="1" source="rmpbK_NkBcnPXk61O0qN-234" target="rmpbK_NkBcnPXk61O0qN-235" edge="1">
          <mxGeometry relative="1" as="geometry" />
        </mxCell>
        <mxCell id="rmpbK_NkBcnPXk61O0qN-233" style="edgeStyle=orthogonalEdgeStyle;rounded=0;orthogonalLoop=1;jettySize=auto;html=1;exitX=1;exitY=0.5;exitDx=0;exitDy=0;entryX=0;entryY=0.5;entryDx=0;entryDy=0;" parent="1" source="rmpbK_NkBcnPXk61O0qN-234" target="rmpbK_NkBcnPXk61O0qN-236" edge="1">
          <mxGeometry relative="1" as="geometry" />
        </mxCell>
        <mxCell id="rmpbK_NkBcnPXk61O0qN-234" value="3" style="rhombus;whiteSpace=wrap;html=1;" parent="1" vertex="1">
          <mxGeometry x="-322.4599999999999" y="637.5" width="45" height="40" as="geometry" />
        </mxCell>
        <mxCell id="rmpbK_NkBcnPXk61O0qN-235" value="message send" style="shape=parallelogram;perimeter=parallelogramPerimeter;whiteSpace=wrap;html=1;fixedSize=1;" parent="1" vertex="1">
          <mxGeometry x="-481.9599999999999" y="642.5" width="130" height="30" as="geometry" />
        </mxCell>
        <mxCell id="rmpbK_NkBcnPXk61O0qN-236" value="reload" style="rounded=0;whiteSpace=wrap;html=1;" parent="1" vertex="1">
          <mxGeometry x="-239.9599999999999" y="642.5" width="70" height="30" as="geometry" />
        </mxCell>
        <mxCell id="rmpbK_NkBcnPXk61O0qN-237" value="" style="endArrow=classic;html=1;rounded=0;exitX=0.5;exitY=0;exitDx=0;exitDy=0;entryX=1;entryY=0.5;entryDx=0;entryDy=0;" parent="1" source="rmpbK_NkBcnPXk61O0qN-236" target="rmpbK_NkBcnPXk61O0qN-231" edge="1">
          <mxGeometry width="50" height="50" relative="1" as="geometry">
            <mxPoint x="-319.9599999999999" y="652.5" as="sourcePoint" />
            <mxPoint x="-269.9599999999999" y="602.5" as="targetPoint" />
            <Array as="points">
              <mxPoint x="-204.9599999999999" y="595.5" />
            </Array>
          </mxGeometry>
        </mxCell>
        <mxCell id="rmpbK_NkBcnPXk61O0qN-238" value="yes" style="text;html=1;align=center;verticalAlign=middle;whiteSpace=wrap;rounded=0;" parent="1" vertex="1">
          <mxGeometry x="-522.4599999999999" y="577.5" width="27.5" height="15" as="geometry" />
        </mxCell>
        <mxCell id="rmpbK_NkBcnPXk61O0qN-239" value="yes" style="text;html=1;align=center;verticalAlign=middle;whiteSpace=wrap;rounded=0;" parent="1" vertex="1">
          <mxGeometry x="-419.9599999999999" y="615" width="27.5" height="15" as="geometry" />
        </mxCell>
        <mxCell id="rmpbK_NkBcnPXk61O0qN-240" value="yes" style="text;html=1;align=center;verticalAlign=middle;whiteSpace=wrap;rounded=0;" parent="1" vertex="1">
          <mxGeometry x="-349.9599999999999" y="642.5" width="27.5" height="15" as="geometry" />
        </mxCell>
        <mxCell id="rmpbK_NkBcnPXk61O0qN-241" value="no" style="text;html=1;align=center;verticalAlign=middle;whiteSpace=wrap;rounded=0;" parent="1" vertex="1">
          <mxGeometry x="-549.9599999999999" y="615" width="27.5" height="15" as="geometry" />
        </mxCell>
        <mxCell id="rmpbK_NkBcnPXk61O0qN-242" value="no" style="text;html=1;align=center;verticalAlign=middle;whiteSpace=wrap;rounded=0;" parent="1" vertex="1">
          <mxGeometry x="-399.9599999999999" y="580" width="27.5" height="15" as="geometry" />
        </mxCell>
        <mxCell id="rmpbK_NkBcnPXk61O0qN-243" value="no" style="text;html=1;align=center;verticalAlign=middle;whiteSpace=wrap;rounded=0;" parent="1" vertex="1">
          <mxGeometry x="-279.9599999999999" y="642.5" width="27.5" height="15" as="geometry" />
        </mxCell>
        <mxCell id="rmpbK_NkBcnPXk61O0qN-244" style="edgeStyle=orthogonalEdgeStyle;rounded=0;orthogonalLoop=1;jettySize=auto;html=1;exitX=0.5;exitY=1;exitDx=0;exitDy=0;entryX=0.611;entryY=0.064;entryDx=0;entryDy=0;entryPerimeter=0;" parent="1" source="rmpbK_NkBcnPXk61O0qN-217" target="rmpbK_NkBcnPXk61O0qN-220" edge="1">
          <mxGeometry relative="1" as="geometry" />
        </mxCell>
        <mxCell id="rmpbK_NkBcnPXk61O0qN-250" style="edgeStyle=orthogonalEdgeStyle;rounded=0;orthogonalLoop=1;jettySize=auto;html=1;exitX=0.5;exitY=1;exitDx=0;exitDy=0;entryX=0.5;entryY=0;entryDx=0;entryDy=0;" parent="1" source="rmpbK_NkBcnPXk61O0qN-245" target="rmpbK_NkBcnPXk61O0qN-246" edge="1">
          <mxGeometry relative="1" as="geometry" />
        </mxCell>
        <mxCell id="rmpbK_NkBcnPXk61O0qN-245" value="enter data" style="rounded=0;whiteSpace=wrap;html=1;" parent="1" vertex="1">
          <mxGeometry x="-714.9999999999999" y="740" width="100" height="30" as="geometry" />
        </mxCell>
        <mxCell id="rmpbK_NkBcnPXk61O0qN-251" style="edgeStyle=orthogonalEdgeStyle;rounded=0;orthogonalLoop=1;jettySize=auto;html=1;exitX=0.5;exitY=1;exitDx=0;exitDy=0;entryX=0.5;entryY=0;entryDx=0;entryDy=0;" parent="1" source="rmpbK_NkBcnPXk61O0qN-246" target="rmpbK_NkBcnPXk61O0qN-248" edge="1">
          <mxGeometry relative="1" as="geometry" />
        </mxCell>
        <mxCell id="rmpbK_NkBcnPXk61O0qN-253" style="edgeStyle=orthogonalEdgeStyle;rounded=0;orthogonalLoop=1;jettySize=auto;html=1;exitX=1;exitY=0.5;exitDx=0;exitDy=0;entryX=0;entryY=0.5;entryDx=0;entryDy=0;" parent="1" source="rmpbK_NkBcnPXk61O0qN-246" target="rmpbK_NkBcnPXk61O0qN-247" edge="1">
          <mxGeometry relative="1" as="geometry" />
        </mxCell>
        <mxCell id="rmpbK_NkBcnPXk61O0qN-246" value="4" style="rhombus;whiteSpace=wrap;html=1;" parent="1" vertex="1">
          <mxGeometry x="-687.4999999999999" y="797.5" width="45" height="40" as="geometry" />
        </mxCell>
        <mxCell id="rmpbK_NkBcnPXk61O0qN-254" style="edgeStyle=orthogonalEdgeStyle;rounded=0;orthogonalLoop=1;jettySize=auto;html=1;exitX=0.5;exitY=0;exitDx=0;exitDy=0;entryX=1;entryY=0.5;entryDx=0;entryDy=0;" parent="1" source="rmpbK_NkBcnPXk61O0qN-247" target="rmpbK_NkBcnPXk61O0qN-245" edge="1">
          <mxGeometry relative="1" as="geometry" />
        </mxCell>
        <mxCell id="rmpbK_NkBcnPXk61O0qN-247" value="try again" style="shape=parallelogram;perimeter=parallelogramPerimeter;whiteSpace=wrap;html=1;fixedSize=1;" parent="1" vertex="1">
          <mxGeometry x="-601.2099999999999" y="803.5" width="130" height="30" as="geometry" />
        </mxCell>
        <mxCell id="rmpbK_NkBcnPXk61O0qN-248" value="requested" style="shape=parallelogram;perimeter=parallelogramPerimeter;whiteSpace=wrap;html=1;fixedSize=1;" parent="1" vertex="1">
          <mxGeometry x="-731.2099999999999" y="867.5" width="130" height="30" as="geometry" />
        </mxCell>
        <mxCell id="rmpbK_NkBcnPXk61O0qN-255" value="no" style="text;html=1;align=center;verticalAlign=middle;whiteSpace=wrap;rounded=0;" parent="1" vertex="1">
          <mxGeometry x="-649.9999999999999" y="803.5" width="27.5" height="15" as="geometry" />
        </mxCell>
        <mxCell id="rmpbK_NkBcnPXk61O0qN-256" value="yes" style="text;html=1;align=center;verticalAlign=middle;whiteSpace=wrap;rounded=0;" parent="1" vertex="1">
          <mxGeometry x="-669.9999999999999" y="837.5" width="27.5" height="15" as="geometry" />
        </mxCell>
        <mxCell id="rmpbK_NkBcnPXk61O0qN-257" value="" style="endArrow=none;html=1;rounded=0;exitX=0.5;exitY=1;exitDx=0;exitDy=0;" parent="1" source="rmpbK_NkBcnPXk61O0qN-226" edge="1">
          <mxGeometry width="50" height="50" relative="1" as="geometry">
            <mxPoint x="-360" y="620" as="sourcePoint" />
            <mxPoint x="-120" y="450" as="targetPoint" />
            <Array as="points">
              <mxPoint x="-545" y="700" />
              <mxPoint x="-120" y="700" />
            </Array>
          </mxGeometry>
        </mxCell>
        <mxCell id="rmpbK_NkBcnPXk61O0qN-258" value="" style="endArrow=none;html=1;rounded=0;entryX=0.5;entryY=1;entryDx=0;entryDy=0;" parent="1" target="rmpbK_NkBcnPXk61O0qN-235" edge="1">
          <mxGeometry width="50" height="50" relative="1" as="geometry">
            <mxPoint x="-417" y="700" as="sourcePoint" />
            <mxPoint x="-300" y="680" as="targetPoint" />
          </mxGeometry>
        </mxCell>
        <mxCell id="rmpbK_NkBcnPXk61O0qN-259" value="" style="endArrow=none;html=1;rounded=0;exitX=1;exitY=0.5;exitDx=0;exitDy=0;" parent="1" source="rmpbK_NkBcnPXk61O0qN-247" edge="1">
          <mxGeometry width="50" height="50" relative="1" as="geometry">
            <mxPoint x="-360" y="820" as="sourcePoint" />
            <mxPoint x="-360" y="700" as="targetPoint" />
            <Array as="points">
              <mxPoint x="-360" y="819" />
            </Array>
          </mxGeometry>
        </mxCell>
        <mxCell id="rmpbK_NkBcnPXk61O0qN-260" value="" style="endArrow=none;html=1;rounded=0;exitX=1;exitY=0.5;exitDx=0;exitDy=0;" parent="1" source="rmpbK_NkBcnPXk61O0qN-248" edge="1">
          <mxGeometry width="50" height="50" relative="1" as="geometry">
            <mxPoint x="-360" y="820" as="sourcePoint" />
            <mxPoint x="-360" y="820" as="targetPoint" />
            <Array as="points">
              <mxPoint x="-360" y="883" />
            </Array>
          </mxGeometry>
        </mxCell>
        <mxCell id="rmpbK_NkBcnPXk61O0qN-261" value="" style="endArrow=none;html=1;rounded=0;exitX=1;exitY=0.5;exitDx=0;exitDy=0;entryX=0;entryY=0.5;entryDx=0;entryDy=0;" parent="1" source="rmpbK_NkBcnPXk61O0qN-119" target="rmpbK_NkBcnPXk61O0qN-90" edge="1">
          <mxGeometry width="50" height="50" relative="1" as="geometry">
            <mxPoint x="480" y="610" as="sourcePoint" />
            <mxPoint x="530" y="560" as="targetPoint" />
            <Array as="points">
              <mxPoint x="410" y="640" />
              <mxPoint x="410" y="495" />
            </Array>
          </mxGeometry>
        </mxCell>
        <mxCell id="rmpbK_NkBcnPXk61O0qN-262" value="" style="endArrow=none;html=1;rounded=0;entryX=0;entryY=0.5;entryDx=0;entryDy=0;" parent="1" target="rmpbK_NkBcnPXk61O0qN-91" edge="1">
          <mxGeometry width="50" height="50" relative="1" as="geometry">
            <mxPoint x="410" y="535" as="sourcePoint" />
            <mxPoint x="410" y="490" as="targetPoint" />
          </mxGeometry>
        </mxCell>
        <mxCell id="rmpbK_NkBcnPXk61O0qN-263" value="" style="endArrow=none;html=1;rounded=0;entryX=0;entryY=0.5;entryDx=0;entryDy=0;" parent="1" target="rmpbK_NkBcnPXk61O0qN-92" edge="1">
          <mxGeometry width="50" height="50" relative="1" as="geometry">
            <mxPoint x="410" y="575" as="sourcePoint" />
            <mxPoint x="420" y="500" as="targetPoint" />
          </mxGeometry>
        </mxCell>
        <mxCell id="rmpbK_NkBcnPXk61O0qN-264" value="" style="endArrow=none;html=1;rounded=0;exitX=1;exitY=0.5;exitDx=0;exitDy=0;" parent="1" source="rmpbK_NkBcnPXk61O0qN-194" edge="1">
          <mxGeometry width="50" height="50" relative="1" as="geometry">
            <mxPoint x="340" y="760" as="sourcePoint" />
            <mxPoint x="410" y="640" as="targetPoint" />
            <Array as="points">
              <mxPoint x="200" y="955" />
              <mxPoint x="200" y="720" />
              <mxPoint x="410" y="720" />
            </Array>
          </mxGeometry>
        </mxCell>
        <mxCell id="rmpbK_NkBcnPXk61O0qN-265" value="" style="endArrow=none;html=1;rounded=0;entryX=0.5;entryY=1;entryDx=0;entryDy=0;" parent="1" target="rmpbK_NkBcnPXk61O0qN-143" edge="1">
          <mxGeometry width="50" height="50" relative="1" as="geometry">
            <mxPoint x="410" y="720" as="sourcePoint" />
            <mxPoint x="440" y="630" as="targetPoint" />
            <Array as="points">
              <mxPoint x="863" y="720" />
            </Array>
          </mxGeometry>
        </mxCell>
        <mxCell id="rmpbK_NkBcnPXk61O0qN-266" value="" style="endArrow=none;html=1;rounded=0;entryX=0.5;entryY=1;entryDx=0;entryDy=0;" parent="1" target="rmpbK_NkBcnPXk61O0qN-136" edge="1">
          <mxGeometry width="50" height="50" relative="1" as="geometry">
            <mxPoint x="735" y="720" as="sourcePoint" />
            <mxPoint x="540" y="670" as="targetPoint" />
          </mxGeometry>
        </mxCell>
        <mxCell id="rmpbK_NkBcnPXk61O0qN-267" value="" style="endArrow=none;html=1;rounded=0;entryX=1;entryY=0.5;entryDx=0;entryDy=0;exitX=0.618;exitY=0;exitDx=0;exitDy=0;exitPerimeter=0;" parent="1" source="rmpbK_NkBcnPXk61O0qN-88" target="rmpbK_NkBcnPXk61O0qN-58" edge="1">
          <mxGeometry width="50" height="50" relative="1" as="geometry">
            <mxPoint x="450" y="380" as="sourcePoint" />
            <mxPoint x="500" y="330" as="targetPoint" />
            <Array as="points">
              <mxPoint x="520" y="340" />
            </Array>
          </mxGeometry>
        </mxCell>
        <mxCell id="rmpbK_NkBcnPXk61O0qN-268" value="" style="endArrow=none;html=1;rounded=0;entryX=0;entryY=0.5;entryDx=0;entryDy=0;" parent="1" target="rmpbK_NkBcnPXk61O0qN-269" edge="1">
          <mxGeometry width="50" height="50" relative="1" as="geometry">
            <mxPoint x="520" y="370" as="sourcePoint" />
            <mxPoint x="550" y="370" as="targetPoint" />
          </mxGeometry>
        </mxCell>
        <mxCell id="rmpbK_NkBcnPXk61O0qN-269" value="B" style="ellipse;whiteSpace=wrap;html=1;aspect=fixed;" parent="1" vertex="1">
          <mxGeometry x="545" y="357" width="25" height="25" as="geometry" />
        </mxCell>
        <mxCell id="rmpbK_NkBcnPXk61O0qN-270" value="" style="endArrow=none;html=1;rounded=0;entryX=0;entryY=0.5;entryDx=0;entryDy=0;" parent="1" target="rmpbK_NkBcnPXk61O0qN-271" edge="1">
          <mxGeometry width="50" height="50" relative="1" as="geometry">
            <mxPoint x="200" y="955" as="sourcePoint" />
            <mxPoint x="220" y="955" as="targetPoint" />
          </mxGeometry>
        </mxCell>
        <mxCell id="rmpbK_NkBcnPXk61O0qN-271" value="C" style="ellipse;whiteSpace=wrap;html=1;aspect=fixed;" parent="1" vertex="1">
          <mxGeometry x="240" y="942.5" width="25" height="25" as="geometry" />
        </mxCell>
        <mxCell id="rmpbK_NkBcnPXk61O0qN-272" value="D" style="ellipse;whiteSpace=wrap;html=1;aspect=fixed;" parent="1" vertex="1">
          <mxGeometry x="-270" y="740" width="25" height="25" as="geometry" />
        </mxCell>
        <mxCell id="rmpbK_NkBcnPXk61O0qN-273" value="" style="endArrow=none;html=1;rounded=0;exitX=0.5;exitY=0;exitDx=0;exitDy=0;" parent="1" source="rmpbK_NkBcnPXk61O0qN-272" edge="1">
          <mxGeometry width="50" height="50" relative="1" as="geometry">
            <mxPoint x="-20" y="810" as="sourcePoint" />
            <mxPoint x="-258" y="700" as="targetPoint" />
          </mxGeometry>
        </mxCell>
        <mxCell id="ZvxbgBWPpU1imsRM3yPm-1" value="E" style="ellipse;whiteSpace=wrap;html=1;aspect=fixed;" vertex="1" parent="1">
          <mxGeometry x="1260" y="227.5" width="25" height="25" as="geometry" />
        </mxCell>
        <mxCell id="ZvxbgBWPpU1imsRM3yPm-2" value="F" style="ellipse;whiteSpace=wrap;html=1;aspect=fixed;" vertex="1" parent="1">
          <mxGeometry x="1260" y="267.5" width="25" height="25" as="geometry" />
        </mxCell>
        <mxCell id="ZvxbgBWPpU1imsRM3yPm-3" value="G" style="ellipse;whiteSpace=wrap;html=1;aspect=fixed;" vertex="1" parent="1">
          <mxGeometry x="1260" y="307.5" width="25" height="25" as="geometry" />
        </mxCell>
        <mxCell id="ZvxbgBWPpU1imsRM3yPm-4" value="H" style="ellipse;whiteSpace=wrap;html=1;aspect=fixed;" vertex="1" parent="1">
          <mxGeometry x="1260" y="347.5" width="25" height="25" as="geometry" />
        </mxCell>
        <mxCell id="ZvxbgBWPpU1imsRM3yPm-5" value="I" style="ellipse;whiteSpace=wrap;html=1;aspect=fixed;" vertex="1" parent="1">
          <mxGeometry x="1260" y="387.5" width="25" height="25" as="geometry" />
        </mxCell>
        <mxCell id="ZvxbgBWPpU1imsRM3yPm-6" value="J" style="ellipse;whiteSpace=wrap;html=1;aspect=fixed;" vertex="1" parent="1">
          <mxGeometry x="1260" y="427" width="25" height="25" as="geometry" />
        </mxCell>
        <mxCell id="ZvxbgBWPpU1imsRM3yPm-7" value="K" style="ellipse;whiteSpace=wrap;html=1;aspect=fixed;" vertex="1" parent="1">
          <mxGeometry x="1260" y="467.5" width="25" height="25" as="geometry" />
        </mxCell>
        <mxCell id="ZvxbgBWPpU1imsRM3yPm-16" value="E" style="ellipse;whiteSpace=wrap;html=1;aspect=fixed;" vertex="1" parent="1">
          <mxGeometry x="-695" y="1026" width="25" height="25" as="geometry" />
        </mxCell>
        <mxCell id="ZvxbgBWPpU1imsRM3yPm-17" value="PM25" style="shape=parallelogram;perimeter=parallelogramPerimeter;whiteSpace=wrap;html=1;fixedSize=1;" vertex="1" parent="1">
          <mxGeometry x="-659.9999999999999" y="1070" width="130" height="30" as="geometry" />
        </mxCell>
        <mxCell id="ZvxbgBWPpU1imsRM3yPm-18" value="PM10" style="shape=parallelogram;perimeter=parallelogramPerimeter;whiteSpace=wrap;html=1;fixedSize=1;" vertex="1" parent="1">
          <mxGeometry x="-537.9999999999999" y="1070" width="130" height="30" as="geometry" />
        </mxCell>
        <mxCell id="ZvxbgBWPpU1imsRM3yPm-20" value="CO2" style="shape=parallelogram;perimeter=parallelogramPerimeter;whiteSpace=wrap;html=1;fixedSize=1;" vertex="1" parent="1">
          <mxGeometry x="-415.9599999999999" y="1070" width="130" height="30" as="geometry" />
        </mxCell>
        <mxCell id="ZvxbgBWPpU1imsRM3yPm-21" value="NO2" style="shape=parallelogram;perimeter=parallelogramPerimeter;whiteSpace=wrap;html=1;fixedSize=1;" vertex="1" parent="1">
          <mxGeometry x="-173.9999999999999" y="1070" width="130" height="30" as="geometry" />
        </mxCell>
        <mxCell id="ZvxbgBWPpU1imsRM3yPm-22" value="OZONE" style="shape=parallelogram;perimeter=parallelogramPerimeter;whiteSpace=wrap;html=1;fixedSize=1;" vertex="1" parent="1">
          <mxGeometry x="-294.95999999999987" y="1070" width="130" height="30" as="geometry" />
        </mxCell>
        <mxCell id="ZvxbgBWPpU1imsRM3yPm-25" value="" style="endArrow=classic;html=1;rounded=0;exitX=1;exitY=0.5;exitDx=0;exitDy=0;entryX=0.5;entryY=0;entryDx=0;entryDy=0;" edge="1" parent="1" source="ZvxbgBWPpU1imsRM3yPm-16" target="ZvxbgBWPpU1imsRM3yPm-21">
          <mxGeometry width="50" height="50" relative="1" as="geometry">
            <mxPoint x="-330" y="1190" as="sourcePoint" />
            <mxPoint x="10.5" y="1070" as="targetPoint" />
            <Array as="points">
              <mxPoint x="-109" y="1040" />
            </Array>
          </mxGeometry>
        </mxCell>
        <mxCell id="ZvxbgBWPpU1imsRM3yPm-26" value="" style="endArrow=classic;html=1;rounded=0;entryX=0.5;entryY=0;entryDx=0;entryDy=0;" edge="1" parent="1" target="ZvxbgBWPpU1imsRM3yPm-17">
          <mxGeometry width="50" height="50" relative="1" as="geometry">
            <mxPoint x="-595" y="1040" as="sourcePoint" />
            <mxPoint x="-280" y="1140" as="targetPoint" />
          </mxGeometry>
        </mxCell>
        <mxCell id="ZvxbgBWPpU1imsRM3yPm-27" value="" style="endArrow=classic;html=1;rounded=0;entryX=0.5;entryY=0;entryDx=0;entryDy=0;" edge="1" parent="1" target="ZvxbgBWPpU1imsRM3yPm-18">
          <mxGeometry width="50" height="50" relative="1" as="geometry">
            <mxPoint x="-473" y="1040" as="sourcePoint" />
            <mxPoint x="-390" y="1090" as="targetPoint" />
          </mxGeometry>
        </mxCell>
        <mxCell id="ZvxbgBWPpU1imsRM3yPm-28" value="" style="endArrow=classic;html=1;rounded=0;entryX=0.5;entryY=0;entryDx=0;entryDy=0;" edge="1" parent="1" target="ZvxbgBWPpU1imsRM3yPm-20">
          <mxGeometry width="50" height="50" relative="1" as="geometry">
            <mxPoint x="-351" y="1040" as="sourcePoint" />
            <mxPoint x="-390" y="1090" as="targetPoint" />
          </mxGeometry>
        </mxCell>
        <mxCell id="ZvxbgBWPpU1imsRM3yPm-29" value="" style="endArrow=classic;html=1;rounded=0;entryX=0.5;entryY=0;entryDx=0;entryDy=0;" edge="1" parent="1" target="ZvxbgBWPpU1imsRM3yPm-22">
          <mxGeometry width="50" height="50" relative="1" as="geometry">
            <mxPoint x="-230" y="1040" as="sourcePoint" />
            <mxPoint x="-390" y="1090" as="targetPoint" />
          </mxGeometry>
        </mxCell>
        <mxCell id="ZvxbgBWPpU1imsRM3yPm-41" style="edgeStyle=orthogonalEdgeStyle;rounded=0;orthogonalLoop=1;jettySize=auto;html=1;exitX=1;exitY=0.5;exitDx=0;exitDy=0;entryX=0;entryY=0.5;entryDx=0;entryDy=0;" edge="1" parent="1" source="ZvxbgBWPpU1imsRM3yPm-31" target="ZvxbgBWPpU1imsRM3yPm-38">
          <mxGeometry relative="1" as="geometry" />
        </mxCell>
        <mxCell id="ZvxbgBWPpU1imsRM3yPm-31" value="filter" style="rounded=0;whiteSpace=wrap;html=1;" vertex="1" parent="1">
          <mxGeometry x="-30" y="1115" width="70" height="30" as="geometry" />
        </mxCell>
        <mxCell id="ZvxbgBWPpU1imsRM3yPm-32" value="" style="endArrow=classic;html=1;rounded=0;entryX=0.5;entryY=1;entryDx=0;entryDy=0;exitX=0;exitY=0.5;exitDx=0;exitDy=0;" edge="1" parent="1" source="ZvxbgBWPpU1imsRM3yPm-31" target="ZvxbgBWPpU1imsRM3yPm-17">
          <mxGeometry width="50" height="50" relative="1" as="geometry">
            <mxPoint x="-90" y="1060" as="sourcePoint" />
            <mxPoint x="-40" y="1010" as="targetPoint" />
            <Array as="points">
              <mxPoint x="-595" y="1130" />
            </Array>
          </mxGeometry>
        </mxCell>
        <mxCell id="ZvxbgBWPpU1imsRM3yPm-33" value="" style="endArrow=classic;html=1;rounded=0;entryX=0.5;entryY=1;entryDx=0;entryDy=0;" edge="1" parent="1" target="ZvxbgBWPpU1imsRM3yPm-18">
          <mxGeometry width="50" height="50" relative="1" as="geometry">
            <mxPoint x="-473" y="1130" as="sourcePoint" />
            <mxPoint x="-280" y="1070" as="targetPoint" />
          </mxGeometry>
        </mxCell>
        <mxCell id="ZvxbgBWPpU1imsRM3yPm-34" value="" style="endArrow=classic;html=1;rounded=0;entryX=0.5;entryY=1;entryDx=0;entryDy=0;" edge="1" parent="1" target="ZvxbgBWPpU1imsRM3yPm-20">
          <mxGeometry width="50" height="50" relative="1" as="geometry">
            <mxPoint x="-350" y="1130" as="sourcePoint" />
            <mxPoint x="-280" y="1100" as="targetPoint" />
          </mxGeometry>
        </mxCell>
        <mxCell id="ZvxbgBWPpU1imsRM3yPm-35" value="" style="endArrow=classic;html=1;rounded=0;entryX=0.5;entryY=1;entryDx=0;entryDy=0;" edge="1" parent="1" target="ZvxbgBWPpU1imsRM3yPm-22">
          <mxGeometry width="50" height="50" relative="1" as="geometry">
            <mxPoint x="-230" y="1130" as="sourcePoint" />
            <mxPoint x="-280" y="1100" as="targetPoint" />
          </mxGeometry>
        </mxCell>
        <mxCell id="ZvxbgBWPpU1imsRM3yPm-36" value="" style="endArrow=classic;html=1;rounded=0;entryX=0.5;entryY=1;entryDx=0;entryDy=0;" edge="1" parent="1" target="ZvxbgBWPpU1imsRM3yPm-21">
          <mxGeometry width="50" height="50" relative="1" as="geometry">
            <mxPoint x="-110" y="1130" as="sourcePoint" />
            <mxPoint x="-20" y="1110" as="targetPoint" />
          </mxGeometry>
        </mxCell>
        <mxCell id="ZvxbgBWPpU1imsRM3yPm-43" style="edgeStyle=orthogonalEdgeStyle;rounded=0;orthogonalLoop=1;jettySize=auto;html=1;exitX=0.5;exitY=0;exitDx=0;exitDy=0;entryX=0.5;entryY=1;entryDx=0;entryDy=0;" edge="1" parent="1" source="ZvxbgBWPpU1imsRM3yPm-38" target="ZvxbgBWPpU1imsRM3yPm-39">
          <mxGeometry relative="1" as="geometry" />
        </mxCell>
        <mxCell id="ZvxbgBWPpU1imsRM3yPm-38" value="5" style="rhombus;whiteSpace=wrap;html=1;" vertex="1" parent="1">
          <mxGeometry x="72.5" y="1110" width="45" height="40" as="geometry" />
        </mxCell>
        <mxCell id="ZvxbgBWPpU1imsRM3yPm-39" value="data not found" style="shape=parallelogram;perimeter=parallelogramPerimeter;whiteSpace=wrap;html=1;fixedSize=1;" vertex="1" parent="1">
          <mxGeometry x="30.000000000000114" y="1051" width="130" height="30" as="geometry" />
        </mxCell>
        <mxCell id="ZvxbgBWPpU1imsRM3yPm-40" value="filtered data" style="shape=parallelogram;perimeter=parallelogramPerimeter;whiteSpace=wrap;html=1;fixedSize=1;" vertex="1" parent="1">
          <mxGeometry x="150.0000000000001" y="1115" width="130" height="30" as="geometry" />
        </mxCell>
        <mxCell id="ZvxbgBWPpU1imsRM3yPm-44" value="" style="endArrow=classic;html=1;rounded=0;exitX=1;exitY=0.5;exitDx=0;exitDy=0;entryX=0;entryY=0.5;entryDx=0;entryDy=0;" edge="1" parent="1" source="ZvxbgBWPpU1imsRM3yPm-38" target="ZvxbgBWPpU1imsRM3yPm-40">
          <mxGeometry width="50" height="50" relative="1" as="geometry">
            <mxPoint x="122.5" y="1130" as="sourcePoint" />
            <mxPoint x="172.5" y="1080" as="targetPoint" />
          </mxGeometry>
        </mxCell>
        <mxCell id="ZvxbgBWPpU1imsRM3yPm-46" value="F" style="ellipse;whiteSpace=wrap;html=1;aspect=fixed;" vertex="1" parent="1">
          <mxGeometry x="-695" y="1160" width="25" height="25" as="geometry" />
        </mxCell>
        <mxCell id="ZvxbgBWPpU1imsRM3yPm-47" value="TEMPERATURE" style="shape=parallelogram;perimeter=parallelogramPerimeter;whiteSpace=wrap;html=1;fixedSize=1;" vertex="1" parent="1">
          <mxGeometry x="-659.9999999999999" y="1204" width="130" height="30" as="geometry" />
        </mxCell>
        <mxCell id="ZvxbgBWPpU1imsRM3yPm-48" value="HUMIDITY" style="shape=parallelogram;perimeter=parallelogramPerimeter;whiteSpace=wrap;html=1;fixedSize=1;" vertex="1" parent="1">
          <mxGeometry x="-537.9999999999999" y="1204" width="130" height="30" as="geometry" />
        </mxCell>
        <mxCell id="ZvxbgBWPpU1imsRM3yPm-50" value="WIND SPEED" style="shape=parallelogram;perimeter=parallelogramPerimeter;whiteSpace=wrap;html=1;fixedSize=1;" vertex="1" parent="1">
          <mxGeometry x="-415.9599999999999" y="1204" width="130" height="30" as="geometry" />
        </mxCell>
        <mxCell id="ZvxbgBWPpU1imsRM3yPm-52" value="PRECEPITATION" style="shape=parallelogram;perimeter=parallelogramPerimeter;whiteSpace=wrap;html=1;fixedSize=1;" vertex="1" parent="1">
          <mxGeometry x="-294.95999999999987" y="1204" width="130" height="30" as="geometry" />
        </mxCell>
        <mxCell id="ZvxbgBWPpU1imsRM3yPm-53" value="" style="endArrow=classic;html=1;rounded=0;exitX=1;exitY=0.5;exitDx=0;exitDy=0;entryX=0.5;entryY=0;entryDx=0;entryDy=0;" edge="1" parent="1" source="ZvxbgBWPpU1imsRM3yPm-46" target="ZvxbgBWPpU1imsRM3yPm-52">
          <mxGeometry width="50" height="50" relative="1" as="geometry">
            <mxPoint x="-330" y="1324" as="sourcePoint" />
            <mxPoint x="10.5" y="1203.9999999999998" as="targetPoint" />
            <Array as="points">
              <mxPoint x="-230" y="1173" />
            </Array>
          </mxGeometry>
        </mxCell>
        <mxCell id="ZvxbgBWPpU1imsRM3yPm-54" value="" style="endArrow=classic;html=1;rounded=0;entryX=0.5;entryY=0;entryDx=0;entryDy=0;" edge="1" parent="1" target="ZvxbgBWPpU1imsRM3yPm-47">
          <mxGeometry width="50" height="50" relative="1" as="geometry">
            <mxPoint x="-595" y="1174" as="sourcePoint" />
            <mxPoint x="-280" y="1274" as="targetPoint" />
          </mxGeometry>
        </mxCell>
        <mxCell id="ZvxbgBWPpU1imsRM3yPm-55" value="" style="endArrow=classic;html=1;rounded=0;entryX=0.5;entryY=0;entryDx=0;entryDy=0;" edge="1" parent="1" target="ZvxbgBWPpU1imsRM3yPm-48">
          <mxGeometry width="50" height="50" relative="1" as="geometry">
            <mxPoint x="-473" y="1174" as="sourcePoint" />
            <mxPoint x="-390" y="1224" as="targetPoint" />
          </mxGeometry>
        </mxCell>
        <mxCell id="ZvxbgBWPpU1imsRM3yPm-56" value="" style="endArrow=classic;html=1;rounded=0;entryX=0.5;entryY=0;entryDx=0;entryDy=0;" edge="1" parent="1" target="ZvxbgBWPpU1imsRM3yPm-50">
          <mxGeometry width="50" height="50" relative="1" as="geometry">
            <mxPoint x="-351" y="1174" as="sourcePoint" />
            <mxPoint x="-390" y="1224" as="targetPoint" />
          </mxGeometry>
        </mxCell>
        <mxCell id="ZvxbgBWPpU1imsRM3yPm-59" style="edgeStyle=orthogonalEdgeStyle;rounded=0;orthogonalLoop=1;jettySize=auto;html=1;exitX=1;exitY=0.5;exitDx=0;exitDy=0;entryX=0;entryY=0.5;entryDx=0;entryDy=0;" edge="1" parent="1" source="ZvxbgBWPpU1imsRM3yPm-60" target="ZvxbgBWPpU1imsRM3yPm-68">
          <mxGeometry relative="1" as="geometry" />
        </mxCell>
        <mxCell id="ZvxbgBWPpU1imsRM3yPm-60" value="filter" style="rounded=0;whiteSpace=wrap;html=1;" vertex="1" parent="1">
          <mxGeometry x="-174" y="1249" width="70" height="30" as="geometry" />
        </mxCell>
        <mxCell id="ZvxbgBWPpU1imsRM3yPm-61" value="" style="endArrow=classic;html=1;rounded=0;entryX=0.5;entryY=1;entryDx=0;entryDy=0;exitX=0;exitY=0.5;exitDx=0;exitDy=0;" edge="1" parent="1" source="ZvxbgBWPpU1imsRM3yPm-60" target="ZvxbgBWPpU1imsRM3yPm-47">
          <mxGeometry width="50" height="50" relative="1" as="geometry">
            <mxPoint x="-90" y="1194" as="sourcePoint" />
            <mxPoint x="-40" y="1144" as="targetPoint" />
            <Array as="points">
              <mxPoint x="-595" y="1264" />
            </Array>
          </mxGeometry>
        </mxCell>
        <mxCell id="ZvxbgBWPpU1imsRM3yPm-62" value="" style="endArrow=classic;html=1;rounded=0;entryX=0.5;entryY=1;entryDx=0;entryDy=0;" edge="1" parent="1" target="ZvxbgBWPpU1imsRM3yPm-48">
          <mxGeometry width="50" height="50" relative="1" as="geometry">
            <mxPoint x="-473" y="1264" as="sourcePoint" />
            <mxPoint x="-280" y="1204" as="targetPoint" />
          </mxGeometry>
        </mxCell>
        <mxCell id="ZvxbgBWPpU1imsRM3yPm-63" value="" style="endArrow=classic;html=1;rounded=0;entryX=0.5;entryY=1;entryDx=0;entryDy=0;" edge="1" parent="1" target="ZvxbgBWPpU1imsRM3yPm-50">
          <mxGeometry width="50" height="50" relative="1" as="geometry">
            <mxPoint x="-350" y="1264" as="sourcePoint" />
            <mxPoint x="-280" y="1234" as="targetPoint" />
          </mxGeometry>
        </mxCell>
        <mxCell id="ZvxbgBWPpU1imsRM3yPm-64" value="" style="endArrow=classic;html=1;rounded=0;entryX=0.5;entryY=1;entryDx=0;entryDy=0;" edge="1" parent="1" target="ZvxbgBWPpU1imsRM3yPm-52">
          <mxGeometry width="50" height="50" relative="1" as="geometry">
            <mxPoint x="-230" y="1264" as="sourcePoint" />
            <mxPoint x="-280" y="1234" as="targetPoint" />
          </mxGeometry>
        </mxCell>
        <mxCell id="ZvxbgBWPpU1imsRM3yPm-67" style="edgeStyle=orthogonalEdgeStyle;rounded=0;orthogonalLoop=1;jettySize=auto;html=1;exitX=0.5;exitY=0;exitDx=0;exitDy=0;entryX=0.5;entryY=1;entryDx=0;entryDy=0;" edge="1" parent="1" source="ZvxbgBWPpU1imsRM3yPm-68" target="ZvxbgBWPpU1imsRM3yPm-69">
          <mxGeometry relative="1" as="geometry" />
        </mxCell>
        <mxCell id="ZvxbgBWPpU1imsRM3yPm-68" value="5" style="rhombus;whiteSpace=wrap;html=1;" vertex="1" parent="1">
          <mxGeometry x="-71.5" y="1244" width="45" height="40" as="geometry" />
        </mxCell>
        <mxCell id="ZvxbgBWPpU1imsRM3yPm-69" value="data not found" style="shape=parallelogram;perimeter=parallelogramPerimeter;whiteSpace=wrap;html=1;fixedSize=1;" vertex="1" parent="1">
          <mxGeometry x="-113.99999999999989" y="1185" width="130" height="30" as="geometry" />
        </mxCell>
        <mxCell id="ZvxbgBWPpU1imsRM3yPm-70" value="filtered data" style="shape=parallelogram;perimeter=parallelogramPerimeter;whiteSpace=wrap;html=1;fixedSize=1;" vertex="1" parent="1">
          <mxGeometry x="6.000000000000114" y="1249" width="130" height="30" as="geometry" />
        </mxCell>
        <mxCell id="ZvxbgBWPpU1imsRM3yPm-71" value="" style="endArrow=classic;html=1;rounded=0;exitX=1;exitY=0.5;exitDx=0;exitDy=0;entryX=0;entryY=0.5;entryDx=0;entryDy=0;" edge="1" parent="1" source="ZvxbgBWPpU1imsRM3yPm-68" target="ZvxbgBWPpU1imsRM3yPm-70">
          <mxGeometry width="50" height="50" relative="1" as="geometry">
            <mxPoint x="-21.5" y="1264" as="sourcePoint" />
            <mxPoint x="28.5" y="1214" as="targetPoint" />
          </mxGeometry>
        </mxCell>
        <mxCell id="ZvxbgBWPpU1imsRM3yPm-72" value="yes" style="text;html=1;align=center;verticalAlign=middle;whiteSpace=wrap;rounded=0;" vertex="1" parent="1">
          <mxGeometry x="117.5" y="1110" width="27.5" height="15" as="geometry" />
        </mxCell>
        <mxCell id="ZvxbgBWPpU1imsRM3yPm-73" value="yes" style="text;html=1;align=center;verticalAlign=middle;whiteSpace=wrap;rounded=0;" vertex="1" parent="1">
          <mxGeometry x="-28" y="1244" width="27.5" height="15" as="geometry" />
        </mxCell>
        <mxCell id="ZvxbgBWPpU1imsRM3yPm-74" value="no" style="text;html=1;align=center;verticalAlign=middle;whiteSpace=wrap;rounded=0;" vertex="1" parent="1">
          <mxGeometry x="67.5" y="1095" width="27.5" height="15" as="geometry" />
        </mxCell>
        <mxCell id="ZvxbgBWPpU1imsRM3yPm-75" value="no" style="text;html=1;align=center;verticalAlign=middle;whiteSpace=wrap;rounded=0;" vertex="1" parent="1">
          <mxGeometry x="-71.5" y="1229" width="27.5" height="15" as="geometry" />
        </mxCell>
      </root>
    </mxGraphModel>
  </diagram>
</mxfile>
